<mxfile host="65bd71144e" pages="3">
    <diagram id="oRUs7YiMbLiOCucPEHkE" name="4x24 and 4x12">
        <mxGraphModel dx="1518" dy="778" grid="0" gridSize="10" guides="1" tooltips="1" connect="1" arrows="1" fold="1" page="1" pageScale="1" pageWidth="1169" pageHeight="827" math="0" shadow="0">
            <root>
                <mxCell id="0"/>
                <mxCell id="1" parent="0"/>
                <mxCell id="XcYWLEh5awnd829Z7v2t-22" style="edgeStyle=orthogonalEdgeStyle;rounded=0;orthogonalLoop=1;jettySize=auto;html=1;exitX=1;exitY=0.25;exitDx=0;exitDy=0;entryX=0;entryY=0.25;entryDx=0;entryDy=0;" parent="1" source="XcYWLEh5awnd829Z7v2t-1" target="XcYWLEh5awnd829Z7v2t-16" edge="1">
                    <mxGeometry relative="1" as="geometry"/>
                </mxCell>
                <mxCell id="XcYWLEh5awnd829Z7v2t-23" style="edgeStyle=orthogonalEdgeStyle;rounded=0;orthogonalLoop=1;jettySize=auto;html=1;exitX=1;exitY=0.75;exitDx=0;exitDy=0;entryX=0;entryY=0.25;entryDx=0;entryDy=0;sketch=0;jumpStyle=arc;" parent="1" source="XcYWLEh5awnd829Z7v2t-1" target="XcYWLEh5awnd829Z7v2t-17" edge="1">
                    <mxGeometry relative="1" as="geometry">
                        <Array as="points">
                            <mxPoint x="182" y="99"/>
                            <mxPoint x="182" y="164"/>
                        </Array>
                    </mxGeometry>
                </mxCell>
                <mxCell id="XcYWLEh5awnd829Z7v2t-1" value="3in2out" style="rounded=0;whiteSpace=wrap;html=1;" parent="1" vertex="1">
                    <mxGeometry x="42" y="61" width="90" height="50" as="geometry"/>
                </mxCell>
                <mxCell id="XcYWLEh5awnd829Z7v2t-7" value="&lt;p style=&quot;line-height: 1.2&quot;&gt;&lt;/p&gt;&lt;div style=&quot;font-size: 24px&quot;&gt;&lt;font style=&quot;font-size: 24px&quot; face=&quot;Times New Roman&quot;&gt;4x24&lt;/font&gt;&lt;/div&gt;&lt;div style=&quot;font-size: 14px&quot;&gt;&lt;font style=&quot;font-size: 14px&quot; face=&quot;Times New Roman&quot;&gt;&lt;br&gt;&lt;/font&gt;&lt;/div&gt;&lt;div style=&quot;font-size: 24px&quot;&gt;&lt;font style=&quot;font-size: 24px&quot; face=&quot;Times New Roman&quot;&gt;4x12&lt;/font&gt;&lt;/div&gt;&lt;p&gt;&lt;/p&gt;" style="text;html=1;strokeColor=default;fillColor=none;align=left;verticalAlign=middle;whiteSpace=wrap;rounded=0;strokeWidth=2;" parent="1" vertex="1">
                    <mxGeometry x="1032" y="11" width="130" height="90" as="geometry"/>
                </mxCell>
                <mxCell id="XcYWLEh5awnd829Z7v2t-21" style="edgeStyle=orthogonalEdgeStyle;rounded=0;orthogonalLoop=1;jettySize=auto;html=1;exitX=1;exitY=0.25;exitDx=0;exitDy=0;entryX=0;entryY=0.75;entryDx=0;entryDy=0;jumpStyle=arc;" parent="1" source="XcYWLEh5awnd829Z7v2t-8" target="XcYWLEh5awnd829Z7v2t-16" edge="1">
                    <mxGeometry relative="1" as="geometry">
                        <Array as="points">
                            <mxPoint x="152" y="164"/>
                            <mxPoint x="152" y="131"/>
                            <mxPoint x="212" y="131"/>
                            <mxPoint x="212" y="99"/>
                        </Array>
                    </mxGeometry>
                </mxCell>
                <mxCell id="XcYWLEh5awnd829Z7v2t-24" style="edgeStyle=orthogonalEdgeStyle;rounded=0;orthogonalLoop=1;jettySize=auto;html=1;exitX=1;exitY=0.75;exitDx=0;exitDy=0;entryX=0;entryY=0.75;entryDx=0;entryDy=0;" parent="1" source="XcYWLEh5awnd829Z7v2t-8" target="XcYWLEh5awnd829Z7v2t-17" edge="1">
                    <mxGeometry relative="1" as="geometry"/>
                </mxCell>
                <mxCell id="XcYWLEh5awnd829Z7v2t-8" value="3in2out" style="rounded=0;whiteSpace=wrap;html=1;" parent="1" vertex="1">
                    <mxGeometry x="42" y="151" width="90" height="50" as="geometry"/>
                </mxCell>
                <mxCell id="XcYWLEh5awnd829Z7v2t-28" style="edgeStyle=orthogonalEdgeStyle;rounded=0;sketch=0;jumpStyle=arc;orthogonalLoop=1;jettySize=auto;html=1;exitX=1;exitY=0.75;exitDx=0;exitDy=0;entryX=0;entryY=0.25;entryDx=0;entryDy=0;" parent="1" source="XcYWLEh5awnd829Z7v2t-16" target="XcYWLEh5awnd829Z7v2t-18" edge="1">
                    <mxGeometry relative="1" as="geometry"/>
                </mxCell>
                <mxCell id="XcYWLEh5awnd829Z7v2t-16" value="2in2out" style="rounded=0;whiteSpace=wrap;html=1;" parent="1" vertex="1">
                    <mxGeometry x="282" y="61" width="90" height="50" as="geometry"/>
                </mxCell>
                <mxCell id="XcYWLEh5awnd829Z7v2t-29" style="edgeStyle=orthogonalEdgeStyle;rounded=0;sketch=0;jumpStyle=arc;orthogonalLoop=1;jettySize=auto;html=1;exitX=1;exitY=0.75;exitDx=0;exitDy=0;entryX=0;entryY=0.75;entryDx=0;entryDy=0;" parent="1" source="XcYWLEh5awnd829Z7v2t-17" target="XcYWLEh5awnd829Z7v2t-18" edge="1">
                    <mxGeometry relative="1" as="geometry"/>
                </mxCell>
                <mxCell id="XcYWLEh5awnd829Z7v2t-17" value="2in1out" style="rounded=0;whiteSpace=wrap;html=1;" parent="1" vertex="1">
                    <mxGeometry x="282" y="151" width="90" height="50" as="geometry"/>
                </mxCell>
                <mxCell id="XcYWLEh5awnd829Z7v2t-129" style="edgeStyle=orthogonalEdgeStyle;rounded=0;sketch=0;jumpStyle=arc;orthogonalLoop=1;jettySize=auto;html=1;exitX=1;exitY=0.5;exitDx=0;exitDy=0;entryX=0;entryY=0.25;entryDx=0;entryDy=0;" parent="1" source="XcYWLEh5awnd829Z7v2t-18" target="XcYWLEh5awnd829Z7v2t-67" edge="1">
                    <mxGeometry relative="1" as="geometry">
                        <Array as="points">
                            <mxPoint x="692" y="176"/>
                            <mxPoint x="692" y="380"/>
                        </Array>
                    </mxGeometry>
                </mxCell>
                <mxCell id="XcYWLEh5awnd829Z7v2t-18" value="2in1out" style="rounded=0;whiteSpace=wrap;html=1;fillColor=#d0cee2;strokeColor=#56517E;" parent="1" vertex="1">
                    <mxGeometry x="482" y="151" width="90" height="50" as="geometry"/>
                </mxCell>
                <mxCell id="XcYWLEh5awnd829Z7v2t-31" value="Submin" style="text;html=1;strokeColor=none;fillColor=none;align=center;verticalAlign=middle;whiteSpace=wrap;rounded=0;" parent="1" vertex="1">
                    <mxGeometry x="572" y="141" width="60" height="30" as="geometry"/>
                </mxCell>
                <mxCell id="XcYWLEh5awnd829Z7v2t-32" style="edgeStyle=orthogonalEdgeStyle;rounded=0;orthogonalLoop=1;jettySize=auto;html=1;exitX=1;exitY=0.25;exitDx=0;exitDy=0;entryX=0;entryY=0.25;entryDx=0;entryDy=0;" parent="1" source="XcYWLEh5awnd829Z7v2t-34" target="XcYWLEh5awnd829Z7v2t-40" edge="1">
                    <mxGeometry relative="1" as="geometry"/>
                </mxCell>
                <mxCell id="XcYWLEh5awnd829Z7v2t-33" style="edgeStyle=orthogonalEdgeStyle;rounded=0;orthogonalLoop=1;jettySize=auto;html=1;exitX=1;exitY=0.75;exitDx=0;exitDy=0;entryX=0;entryY=0.25;entryDx=0;entryDy=0;sketch=0;jumpStyle=arc;" parent="1" source="XcYWLEh5awnd829Z7v2t-34" target="XcYWLEh5awnd829Z7v2t-42" edge="1">
                    <mxGeometry relative="1" as="geometry">
                        <Array as="points">
                            <mxPoint x="182" y="315"/>
                            <mxPoint x="182" y="380"/>
                        </Array>
                    </mxGeometry>
                </mxCell>
                <mxCell id="XcYWLEh5awnd829Z7v2t-34" value="3in2out" style="rounded=0;whiteSpace=wrap;html=1;fillColor=#f0a30a;fontColor=#000000;strokeColor=#BD7000;" parent="1" vertex="1">
                    <mxGeometry x="42" y="277" width="90" height="50" as="geometry"/>
                </mxCell>
                <mxCell id="XcYWLEh5awnd829Z7v2t-35" style="edgeStyle=orthogonalEdgeStyle;rounded=0;orthogonalLoop=1;jettySize=auto;html=1;exitX=1;exitY=0.25;exitDx=0;exitDy=0;entryX=0;entryY=0.75;entryDx=0;entryDy=0;jumpStyle=arc;" parent="1" source="XcYWLEh5awnd829Z7v2t-37" target="XcYWLEh5awnd829Z7v2t-40" edge="1">
                    <mxGeometry relative="1" as="geometry">
                        <Array as="points">
                            <mxPoint x="152" y="380"/>
                            <mxPoint x="152" y="347"/>
                            <mxPoint x="212" y="347"/>
                            <mxPoint x="212" y="315"/>
                        </Array>
                    </mxGeometry>
                </mxCell>
                <mxCell id="XcYWLEh5awnd829Z7v2t-36" style="edgeStyle=orthogonalEdgeStyle;rounded=0;orthogonalLoop=1;jettySize=auto;html=1;exitX=1;exitY=0.75;exitDx=0;exitDy=0;entryX=0;entryY=0.75;entryDx=0;entryDy=0;" parent="1" source="XcYWLEh5awnd829Z7v2t-37" target="XcYWLEh5awnd829Z7v2t-42" edge="1">
                    <mxGeometry relative="1" as="geometry"/>
                </mxCell>
                <mxCell id="XcYWLEh5awnd829Z7v2t-37" value="3in2out" style="rounded=0;whiteSpace=wrap;html=1;fillColor=#fad7ac;strokeColor=#b46504;" parent="1" vertex="1">
                    <mxGeometry x="42" y="367" width="90" height="50" as="geometry"/>
                </mxCell>
                <mxCell id="XcYWLEh5awnd829Z7v2t-38" style="edgeStyle=orthogonalEdgeStyle;rounded=0;sketch=0;jumpStyle=arc;orthogonalLoop=1;jettySize=auto;html=1;exitX=1;exitY=0.25;exitDx=0;exitDy=0;entryX=0;entryY=0.25;entryDx=0;entryDy=0;" parent="1" source="XcYWLEh5awnd829Z7v2t-40" target="XcYWLEh5awnd829Z7v2t-47" edge="1">
                    <mxGeometry relative="1" as="geometry">
                        <mxPoint x="422" y="290" as="targetPoint"/>
                    </mxGeometry>
                </mxCell>
                <mxCell id="XcYWLEh5awnd829Z7v2t-39" style="edgeStyle=orthogonalEdgeStyle;rounded=0;sketch=0;jumpStyle=arc;orthogonalLoop=1;jettySize=auto;html=1;exitX=1;exitY=0.75;exitDx=0;exitDy=0;entryX=0;entryY=0.25;entryDx=0;entryDy=0;" parent="1" source="XcYWLEh5awnd829Z7v2t-40" target="XcYWLEh5awnd829Z7v2t-44" edge="1">
                    <mxGeometry relative="1" as="geometry"/>
                </mxCell>
                <mxCell id="XcYWLEh5awnd829Z7v2t-40" value="2in2out" style="rounded=0;whiteSpace=wrap;html=1;" parent="1" vertex="1">
                    <mxGeometry x="282" y="277" width="90" height="50" as="geometry"/>
                </mxCell>
                <mxCell id="XcYWLEh5awnd829Z7v2t-41" style="edgeStyle=orthogonalEdgeStyle;rounded=0;sketch=0;jumpStyle=arc;orthogonalLoop=1;jettySize=auto;html=1;exitX=1;exitY=0.75;exitDx=0;exitDy=0;entryX=0;entryY=0.75;entryDx=0;entryDy=0;" parent="1" source="XcYWLEh5awnd829Z7v2t-42" target="XcYWLEh5awnd829Z7v2t-44" edge="1">
                    <mxGeometry relative="1" as="geometry"/>
                </mxCell>
                <mxCell id="XcYWLEh5awnd829Z7v2t-42" value="2in1out" style="rounded=0;whiteSpace=wrap;html=1;" parent="1" vertex="1">
                    <mxGeometry x="282" y="367" width="90" height="50" as="geometry"/>
                </mxCell>
                <mxCell id="XcYWLEh5awnd829Z7v2t-43" style="edgeStyle=orthogonalEdgeStyle;rounded=0;sketch=0;jumpStyle=arc;orthogonalLoop=1;jettySize=auto;html=1;exitX=1;exitY=0.5;exitDx=0;exitDy=0;entryX=0;entryY=0.5;entryDx=0;entryDy=0;" parent="1" source="XcYWLEh5awnd829Z7v2t-44" target="XcYWLEh5awnd829Z7v2t-67" edge="1">
                    <mxGeometry relative="1" as="geometry">
                        <mxPoint x="632" y="391.72413793103453" as="targetPoint"/>
                    </mxGeometry>
                </mxCell>
                <mxCell id="XcYWLEh5awnd829Z7v2t-44" value="2in1out" style="rounded=0;whiteSpace=wrap;html=1;strokeColor=#56517E;fillColor=#d0cee2;" parent="1" vertex="1">
                    <mxGeometry x="482" y="367" width="90" height="50" as="geometry"/>
                </mxCell>
                <mxCell id="XcYWLEh5awnd829Z7v2t-46" value="Submin" style="text;html=1;strokeColor=none;fillColor=none;align=center;verticalAlign=middle;whiteSpace=wrap;rounded=0;" parent="1" vertex="1">
                    <mxGeometry x="572" y="357" width="60" height="30" as="geometry"/>
                </mxCell>
                <mxCell id="XcYWLEh5awnd829Z7v2t-130" style="edgeStyle=orthogonalEdgeStyle;rounded=0;sketch=0;jumpStyle=arc;orthogonalLoop=1;jettySize=auto;html=1;exitX=1;exitY=0.75;exitDx=0;exitDy=0;entryX=0;entryY=0.75;entryDx=0;entryDy=0;" parent="1" source="XcYWLEh5awnd829Z7v2t-47" target="XcYWLEh5awnd829Z7v2t-67" edge="1">
                    <mxGeometry relative="1" as="geometry"/>
                </mxCell>
                <mxCell id="XcYWLEh5awnd829Z7v2t-132" style="edgeStyle=orthogonalEdgeStyle;rounded=0;sketch=0;jumpStyle=arc;orthogonalLoop=1;jettySize=auto;html=1;exitX=1;exitY=0.25;exitDx=0;exitDy=0;entryX=0;entryY=0.75;entryDx=0;entryDy=0;" parent="1" source="XcYWLEh5awnd829Z7v2t-47" target="XcYWLEh5awnd829Z7v2t-128" edge="1">
                    <mxGeometry relative="1" as="geometry">
                        <Array as="points">
                            <mxPoint x="676" y="290"/>
                            <mxPoint x="676" y="734"/>
                        </Array>
                    </mxGeometry>
                </mxCell>
                <mxCell id="XcYWLEh5awnd829Z7v2t-47" value="2in2out" style="rounded=0;whiteSpace=wrap;html=1;fillColor=#b1ddf0;strokeColor=#10739e;" parent="1" vertex="1">
                    <mxGeometry x="482" y="277" width="90" height="50" as="geometry"/>
                </mxCell>
                <mxCell id="XcYWLEh5awnd829Z7v2t-48" value="3in2out" style="rounded=0;whiteSpace=wrap;html=1;fillColor=#f0a30a;fontColor=#000000;strokeColor=#BD7000;" parent="1" vertex="1">
                    <mxGeometry x="42" y="61" width="90" height="50" as="geometry"/>
                </mxCell>
                <mxCell id="XcYWLEh5awnd829Z7v2t-49" value="3in2out" style="rounded=0;whiteSpace=wrap;html=1;fillColor=#f0a30a;fontColor=#000000;strokeColor=#BD7000;" parent="1" vertex="1">
                    <mxGeometry x="42" y="151" width="90" height="50" as="geometry"/>
                </mxCell>
                <mxCell id="XcYWLEh5awnd829Z7v2t-50" value="3in2out" style="rounded=0;whiteSpace=wrap;html=1;fillColor=#f0a30a;fontColor=#000000;strokeColor=#BD7000;" parent="1" vertex="1">
                    <mxGeometry x="42" y="61" width="90" height="50" as="geometry"/>
                </mxCell>
                <mxCell id="XcYWLEh5awnd829Z7v2t-51" value="3in2out" style="rounded=0;whiteSpace=wrap;html=1;fillColor=#f0a30a;fontColor=#000000;strokeColor=#BD7000;" parent="1" vertex="1">
                    <mxGeometry x="42" y="151" width="90" height="50" as="geometry"/>
                </mxCell>
                <mxCell id="XcYWLEh5awnd829Z7v2t-52" value="3in2out" style="rounded=0;whiteSpace=wrap;html=1;fillColor=#f0a30a;fontColor=#000000;strokeColor=#BD7000;" parent="1" vertex="1">
                    <mxGeometry x="42" y="277" width="90" height="50" as="geometry"/>
                </mxCell>
                <mxCell id="XcYWLEh5awnd829Z7v2t-53" value="3in2out" style="rounded=0;whiteSpace=wrap;html=1;fillColor=#f0a30a;fontColor=#000000;strokeColor=#BD7000;" parent="1" vertex="1">
                    <mxGeometry x="42" y="61" width="90" height="50" as="geometry"/>
                </mxCell>
                <mxCell id="XcYWLEh5awnd829Z7v2t-54" value="3in2out" style="rounded=0;whiteSpace=wrap;html=1;fillColor=#f0a30a;fontColor=#000000;strokeColor=#BD7000;" parent="1" vertex="1">
                    <mxGeometry x="42" y="151" width="90" height="50" as="geometry"/>
                </mxCell>
                <mxCell id="XcYWLEh5awnd829Z7v2t-55" value="3in2out" style="rounded=0;whiteSpace=wrap;html=1;fillColor=#f0a30a;fontColor=#000000;strokeColor=#BD7000;" parent="1" vertex="1">
                    <mxGeometry x="42" y="277" width="90" height="50" as="geometry"/>
                </mxCell>
                <mxCell id="XcYWLEh5awnd829Z7v2t-56" value="2in2out" style="rounded=0;whiteSpace=wrap;html=1;" parent="1" vertex="1">
                    <mxGeometry x="282" y="61" width="90" height="50" as="geometry"/>
                </mxCell>
                <mxCell id="XcYWLEh5awnd829Z7v2t-57" value="2in1out" style="rounded=0;whiteSpace=wrap;html=1;" parent="1" vertex="1">
                    <mxGeometry x="282" y="151" width="90" height="50" as="geometry"/>
                </mxCell>
                <mxCell id="XcYWLEh5awnd829Z7v2t-58" value="2in2out" style="rounded=0;whiteSpace=wrap;html=1;" parent="1" vertex="1">
                    <mxGeometry x="282" y="277" width="90" height="50" as="geometry"/>
                </mxCell>
                <mxCell id="XcYWLEh5awnd829Z7v2t-59" value="2in1out" style="rounded=0;whiteSpace=wrap;html=1;" parent="1" vertex="1">
                    <mxGeometry x="282" y="367" width="90" height="50" as="geometry"/>
                </mxCell>
                <mxCell id="XcYWLEh5awnd829Z7v2t-60" value="3in2out" style="rounded=0;whiteSpace=wrap;html=1;fillColor=#fad7ac;strokeColor=#b46504;" parent="1" vertex="1">
                    <mxGeometry x="42" y="61" width="90" height="50" as="geometry"/>
                </mxCell>
                <mxCell id="XcYWLEh5awnd829Z7v2t-61" value="3in2out" style="rounded=0;whiteSpace=wrap;html=1;fillColor=#fad7ac;strokeColor=#b46504;" parent="1" vertex="1">
                    <mxGeometry x="42" y="151" width="90" height="50" as="geometry"/>
                </mxCell>
                <mxCell id="XcYWLEh5awnd829Z7v2t-62" value="3in2out" style="rounded=0;whiteSpace=wrap;html=1;fillColor=#fad7ac;strokeColor=#b46504;" parent="1" vertex="1">
                    <mxGeometry x="42" y="277" width="90" height="50" as="geometry"/>
                </mxCell>
                <mxCell id="XcYWLEh5awnd829Z7v2t-68" style="edgeStyle=orthogonalEdgeStyle;rounded=0;sketch=0;jumpStyle=arc;orthogonalLoop=1;jettySize=auto;html=1;exitX=1;exitY=0.25;exitDx=0;exitDy=0;entryX=0;entryY=0.75;entryDx=0;entryDy=0;" parent="1" source="XcYWLEh5awnd829Z7v2t-63" target="XcYWLEh5awnd829Z7v2t-47" edge="1">
                    <mxGeometry relative="1" as="geometry">
                        <mxPoint x="462" y="291" as="targetPoint"/>
                        <Array as="points">
                            <mxPoint x="442" y="74"/>
                            <mxPoint x="442" y="278"/>
                            <mxPoint x="443" y="278"/>
                            <mxPoint x="443" y="315"/>
                        </Array>
                    </mxGeometry>
                </mxCell>
                <mxCell id="XcYWLEh5awnd829Z7v2t-63" value="2in2out" style="rounded=0;whiteSpace=wrap;html=1;strokeColor=#10739e;fillColor=#b1ddf0;" parent="1" vertex="1">
                    <mxGeometry x="282" y="61" width="90" height="50" as="geometry"/>
                </mxCell>
                <mxCell id="XcYWLEh5awnd829Z7v2t-64" value="2in1out" style="rounded=0;whiteSpace=wrap;html=1;strokeColor=#56517e;fillColor=#d0cee2;" parent="1" vertex="1">
                    <mxGeometry x="282" y="151" width="90" height="50" as="geometry"/>
                </mxCell>
                <mxCell id="XcYWLEh5awnd829Z7v2t-65" value="2in2out" style="rounded=0;whiteSpace=wrap;html=1;strokeColor=#10739e;fillColor=#b1ddf0;" parent="1" vertex="1">
                    <mxGeometry x="282" y="277" width="90" height="50" as="geometry"/>
                </mxCell>
                <mxCell id="XcYWLEh5awnd829Z7v2t-66" value="2in1out" style="rounded=0;whiteSpace=wrap;html=1;strokeColor=#56517E;fillColor=#d0cee2;" parent="1" vertex="1">
                    <mxGeometry x="282" y="367" width="90" height="50" as="geometry"/>
                </mxCell>
                <mxCell id="XcYWLEh5awnd829Z7v2t-72" style="edgeStyle=orthogonalEdgeStyle;rounded=0;sketch=0;jumpStyle=arc;orthogonalLoop=1;jettySize=auto;html=1;exitX=1;exitY=0.5;exitDx=0;exitDy=0;entryX=0;entryY=0.25;entryDx=0;entryDy=0;" parent="1" source="XcYWLEh5awnd829Z7v2t-67" target="XcYWLEh5awnd829Z7v2t-134" edge="1">
                    <mxGeometry relative="1" as="geometry">
                        <mxPoint x="882" y="355.72413793103453" as="targetPoint"/>
                    </mxGeometry>
                </mxCell>
                <mxCell id="XcYWLEh5awnd829Z7v2t-67" value="3in1out" style="rounded=0;whiteSpace=wrap;html=1;strokeColor=#ae4132;fillColor=#fad9d5;" parent="1" vertex="1">
                    <mxGeometry x="712" y="367" width="90" height="50" as="geometry"/>
                </mxCell>
                <mxCell id="XcYWLEh5awnd829Z7v2t-74" style="edgeStyle=orthogonalEdgeStyle;rounded=0;orthogonalLoop=1;jettySize=auto;html=1;exitX=1;exitY=0.25;exitDx=0;exitDy=0;entryX=0;entryY=0.25;entryDx=0;entryDy=0;" parent="1" source="XcYWLEh5awnd829Z7v2t-76" target="XcYWLEh5awnd829Z7v2t-81" edge="1">
                    <mxGeometry relative="1" as="geometry"/>
                </mxCell>
                <mxCell id="XcYWLEh5awnd829Z7v2t-75" style="edgeStyle=orthogonalEdgeStyle;rounded=0;orthogonalLoop=1;jettySize=auto;html=1;exitX=1;exitY=0.75;exitDx=0;exitDy=0;entryX=0;entryY=0.25;entryDx=0;entryDy=0;sketch=0;jumpStyle=arc;" parent="1" source="XcYWLEh5awnd829Z7v2t-76" target="XcYWLEh5awnd829Z7v2t-83" edge="1">
                    <mxGeometry relative="1" as="geometry">
                        <Array as="points">
                            <mxPoint x="182" y="554"/>
                            <mxPoint x="182" y="619"/>
                        </Array>
                    </mxGeometry>
                </mxCell>
                <mxCell id="XcYWLEh5awnd829Z7v2t-76" value="3in2out" style="rounded=0;whiteSpace=wrap;html=1;" parent="1" vertex="1">
                    <mxGeometry x="42" y="516" width="90" height="50" as="geometry"/>
                </mxCell>
                <mxCell id="XcYWLEh5awnd829Z7v2t-77" style="edgeStyle=orthogonalEdgeStyle;rounded=0;orthogonalLoop=1;jettySize=auto;html=1;exitX=1;exitY=0.25;exitDx=0;exitDy=0;entryX=0;entryY=0.75;entryDx=0;entryDy=0;jumpStyle=arc;" parent="1" source="XcYWLEh5awnd829Z7v2t-79" target="XcYWLEh5awnd829Z7v2t-81" edge="1">
                    <mxGeometry relative="1" as="geometry">
                        <Array as="points">
                            <mxPoint x="152" y="619"/>
                            <mxPoint x="152" y="586"/>
                            <mxPoint x="212" y="586"/>
                            <mxPoint x="212" y="554"/>
                        </Array>
                    </mxGeometry>
                </mxCell>
                <mxCell id="XcYWLEh5awnd829Z7v2t-78" style="edgeStyle=orthogonalEdgeStyle;rounded=0;orthogonalLoop=1;jettySize=auto;html=1;exitX=1;exitY=0.75;exitDx=0;exitDy=0;entryX=0;entryY=0.75;entryDx=0;entryDy=0;" parent="1" source="XcYWLEh5awnd829Z7v2t-79" target="XcYWLEh5awnd829Z7v2t-83" edge="1">
                    <mxGeometry relative="1" as="geometry"/>
                </mxCell>
                <mxCell id="XcYWLEh5awnd829Z7v2t-79" value="3in2out" style="rounded=0;whiteSpace=wrap;html=1;" parent="1" vertex="1">
                    <mxGeometry x="42" y="606" width="90" height="50" as="geometry"/>
                </mxCell>
                <mxCell id="XcYWLEh5awnd829Z7v2t-80" style="edgeStyle=orthogonalEdgeStyle;rounded=0;sketch=0;jumpStyle=arc;orthogonalLoop=1;jettySize=auto;html=1;exitX=1;exitY=0.75;exitDx=0;exitDy=0;entryX=0;entryY=0.25;entryDx=0;entryDy=0;" parent="1" source="XcYWLEh5awnd829Z7v2t-81" target="XcYWLEh5awnd829Z7v2t-85" edge="1">
                    <mxGeometry relative="1" as="geometry"/>
                </mxCell>
                <mxCell id="XcYWLEh5awnd829Z7v2t-81" value="2in2out" style="rounded=0;whiteSpace=wrap;html=1;" parent="1" vertex="1">
                    <mxGeometry x="282" y="516" width="90" height="50" as="geometry"/>
                </mxCell>
                <mxCell id="XcYWLEh5awnd829Z7v2t-82" style="edgeStyle=orthogonalEdgeStyle;rounded=0;sketch=0;jumpStyle=arc;orthogonalLoop=1;jettySize=auto;html=1;exitX=1;exitY=0.75;exitDx=0;exitDy=0;entryX=0;entryY=0.75;entryDx=0;entryDy=0;" parent="1" source="XcYWLEh5awnd829Z7v2t-83" target="XcYWLEh5awnd829Z7v2t-85" edge="1">
                    <mxGeometry relative="1" as="geometry"/>
                </mxCell>
                <mxCell id="XcYWLEh5awnd829Z7v2t-83" value="2in1out" style="rounded=0;whiteSpace=wrap;html=1;" parent="1" vertex="1">
                    <mxGeometry x="282" y="606" width="90" height="50" as="geometry"/>
                </mxCell>
                <mxCell id="XcYWLEh5awnd829Z7v2t-84" style="edgeStyle=orthogonalEdgeStyle;rounded=0;sketch=0;jumpStyle=arc;orthogonalLoop=1;jettySize=auto;html=1;exitX=1;exitY=0.5;exitDx=0;exitDy=0;entryX=0;entryY=0.25;entryDx=0;entryDy=0;" parent="1" source="XcYWLEh5awnd829Z7v2t-85" target="XcYWLEh5awnd829Z7v2t-126" edge="1">
                    <mxGeometry relative="1" as="geometry">
                        <Array as="points">
                            <mxPoint x="662" y="631"/>
                            <mxPoint x="662" y="799"/>
                        </Array>
                    </mxGeometry>
                </mxCell>
                <mxCell id="XcYWLEh5awnd829Z7v2t-85" value="2in1out" style="rounded=0;whiteSpace=wrap;html=1;fillColor=#d0cee2;strokeColor=#56517E;" parent="1" vertex="1">
                    <mxGeometry x="482" y="606" width="90" height="50" as="geometry"/>
                </mxCell>
                <mxCell id="XcYWLEh5awnd829Z7v2t-86" value="Submin" style="text;html=1;strokeColor=none;fillColor=none;align=center;verticalAlign=middle;whiteSpace=wrap;rounded=0;" parent="1" vertex="1">
                    <mxGeometry x="572" y="596" width="60" height="30" as="geometry"/>
                </mxCell>
                <mxCell id="XcYWLEh5awnd829Z7v2t-87" style="edgeStyle=orthogonalEdgeStyle;rounded=0;orthogonalLoop=1;jettySize=auto;html=1;exitX=1;exitY=0.25;exitDx=0;exitDy=0;entryX=0;entryY=0.25;entryDx=0;entryDy=0;" parent="1" source="XcYWLEh5awnd829Z7v2t-89" target="XcYWLEh5awnd829Z7v2t-95" edge="1">
                    <mxGeometry relative="1" as="geometry"/>
                </mxCell>
                <mxCell id="XcYWLEh5awnd829Z7v2t-88" style="edgeStyle=orthogonalEdgeStyle;rounded=0;orthogonalLoop=1;jettySize=auto;html=1;exitX=1;exitY=0.75;exitDx=0;exitDy=0;entryX=0;entryY=0.25;entryDx=0;entryDy=0;sketch=0;jumpStyle=arc;" parent="1" source="XcYWLEh5awnd829Z7v2t-89" target="XcYWLEh5awnd829Z7v2t-97" edge="1">
                    <mxGeometry relative="1" as="geometry">
                        <Array as="points">
                            <mxPoint x="182" y="734"/>
                            <mxPoint x="182" y="799"/>
                        </Array>
                    </mxGeometry>
                </mxCell>
                <mxCell id="XcYWLEh5awnd829Z7v2t-89" value="3in2out" style="rounded=0;whiteSpace=wrap;html=1;fillColor=#f0a30a;fontColor=#000000;strokeColor=#BD7000;" parent="1" vertex="1">
                    <mxGeometry x="42" y="696" width="90" height="50" as="geometry"/>
                </mxCell>
                <mxCell id="XcYWLEh5awnd829Z7v2t-90" style="edgeStyle=orthogonalEdgeStyle;rounded=0;orthogonalLoop=1;jettySize=auto;html=1;exitX=1;exitY=0.25;exitDx=0;exitDy=0;entryX=0;entryY=0.75;entryDx=0;entryDy=0;jumpStyle=arc;" parent="1" source="XcYWLEh5awnd829Z7v2t-92" target="XcYWLEh5awnd829Z7v2t-95" edge="1">
                    <mxGeometry relative="1" as="geometry">
                        <Array as="points">
                            <mxPoint x="152" y="799"/>
                            <mxPoint x="152" y="766"/>
                            <mxPoint x="212" y="766"/>
                            <mxPoint x="212" y="734"/>
                        </Array>
                    </mxGeometry>
                </mxCell>
                <mxCell id="XcYWLEh5awnd829Z7v2t-91" style="edgeStyle=orthogonalEdgeStyle;rounded=0;orthogonalLoop=1;jettySize=auto;html=1;exitX=1;exitY=0.75;exitDx=0;exitDy=0;entryX=0;entryY=0.75;entryDx=0;entryDy=0;" parent="1" source="XcYWLEh5awnd829Z7v2t-92" target="XcYWLEh5awnd829Z7v2t-97" edge="1">
                    <mxGeometry relative="1" as="geometry"/>
                </mxCell>
                <mxCell id="XcYWLEh5awnd829Z7v2t-92" value="3in2out" style="rounded=0;whiteSpace=wrap;html=1;fillColor=#fad7ac;strokeColor=#b46504;" parent="1" vertex="1">
                    <mxGeometry x="42" y="786" width="90" height="50" as="geometry"/>
                </mxCell>
                <mxCell id="XcYWLEh5awnd829Z7v2t-93" style="edgeStyle=orthogonalEdgeStyle;rounded=0;sketch=0;jumpStyle=arc;orthogonalLoop=1;jettySize=auto;html=1;exitX=1;exitY=0.25;exitDx=0;exitDy=0;entryX=0;entryY=0.25;entryDx=0;entryDy=0;" parent="1" source="XcYWLEh5awnd829Z7v2t-95" target="XcYWLEh5awnd829Z7v2t-104" edge="1">
                    <mxGeometry relative="1" as="geometry">
                        <mxPoint x="422" y="709" as="targetPoint"/>
                    </mxGeometry>
                </mxCell>
                <mxCell id="XcYWLEh5awnd829Z7v2t-94" style="edgeStyle=orthogonalEdgeStyle;rounded=0;sketch=0;jumpStyle=arc;orthogonalLoop=1;jettySize=auto;html=1;exitX=1;exitY=0.75;exitDx=0;exitDy=0;entryX=0;entryY=0.25;entryDx=0;entryDy=0;" parent="1" source="XcYWLEh5awnd829Z7v2t-95" target="XcYWLEh5awnd829Z7v2t-99" edge="1">
                    <mxGeometry relative="1" as="geometry"/>
                </mxCell>
                <mxCell id="XcYWLEh5awnd829Z7v2t-95" value="2in2out" style="rounded=0;whiteSpace=wrap;html=1;" parent="1" vertex="1">
                    <mxGeometry x="282" y="696" width="90" height="50" as="geometry"/>
                </mxCell>
                <mxCell id="XcYWLEh5awnd829Z7v2t-96" style="edgeStyle=orthogonalEdgeStyle;rounded=0;sketch=0;jumpStyle=arc;orthogonalLoop=1;jettySize=auto;html=1;exitX=1;exitY=0.75;exitDx=0;exitDy=0;entryX=0;entryY=0.75;entryDx=0;entryDy=0;" parent="1" source="XcYWLEh5awnd829Z7v2t-97" target="XcYWLEh5awnd829Z7v2t-99" edge="1">
                    <mxGeometry relative="1" as="geometry"/>
                </mxCell>
                <mxCell id="XcYWLEh5awnd829Z7v2t-97" value="2in1out" style="rounded=0;whiteSpace=wrap;html=1;" parent="1" vertex="1">
                    <mxGeometry x="282" y="786" width="90" height="50" as="geometry"/>
                </mxCell>
                <mxCell id="XcYWLEh5awnd829Z7v2t-98" style="edgeStyle=orthogonalEdgeStyle;rounded=0;sketch=0;jumpStyle=arc;orthogonalLoop=1;jettySize=auto;html=1;exitX=1;exitY=0.5;exitDx=0;exitDy=0;entryX=0;entryY=0.5;entryDx=0;entryDy=0;" parent="1" source="XcYWLEh5awnd829Z7v2t-99" target="XcYWLEh5awnd829Z7v2t-126" edge="1">
                    <mxGeometry relative="1" as="geometry">
                        <mxPoint x="632" y="810.7241379310345" as="targetPoint"/>
                    </mxGeometry>
                </mxCell>
                <mxCell id="XcYWLEh5awnd829Z7v2t-99" value="2in1out" style="rounded=0;whiteSpace=wrap;html=1;strokeColor=#56517E;fillColor=#d0cee2;" parent="1" vertex="1">
                    <mxGeometry x="482" y="786" width="90" height="50" as="geometry"/>
                </mxCell>
                <mxCell id="XcYWLEh5awnd829Z7v2t-100" value="Min" style="text;html=1;strokeColor=none;fillColor=none;align=center;verticalAlign=middle;whiteSpace=wrap;rounded=0;" parent="1" vertex="1">
                    <mxGeometry x="1062" y="676" width="60" height="30" as="geometry"/>
                </mxCell>
                <mxCell id="XcYWLEh5awnd829Z7v2t-101" value="Submin" style="text;html=1;strokeColor=none;fillColor=none;align=center;verticalAlign=middle;whiteSpace=wrap;rounded=0;" parent="1" vertex="1">
                    <mxGeometry x="572" y="776" width="60" height="30" as="geometry"/>
                </mxCell>
                <mxCell id="XcYWLEh5awnd829Z7v2t-103" style="edgeStyle=orthogonalEdgeStyle;rounded=0;sketch=0;jumpStyle=arc;orthogonalLoop=1;jettySize=auto;html=1;exitX=1;exitY=0.75;exitDx=0;exitDy=0;entryX=0;entryY=0.75;entryDx=0;entryDy=0;" parent="1" source="XcYWLEh5awnd829Z7v2t-104" target="XcYWLEh5awnd829Z7v2t-126" edge="1">
                    <mxGeometry relative="1" as="geometry"/>
                </mxCell>
                <mxCell id="XcYWLEh5awnd829Z7v2t-131" style="edgeStyle=orthogonalEdgeStyle;rounded=0;sketch=0;jumpStyle=arc;orthogonalLoop=1;jettySize=auto;html=1;exitX=1;exitY=0.25;exitDx=0;exitDy=0;entryX=0;entryY=0.25;entryDx=0;entryDy=0;" parent="1" source="XcYWLEh5awnd829Z7v2t-104" target="XcYWLEh5awnd829Z7v2t-128" edge="1">
                    <mxGeometry relative="1" as="geometry"/>
                </mxCell>
                <mxCell id="XcYWLEh5awnd829Z7v2t-104" value="2in2out" style="rounded=0;whiteSpace=wrap;html=1;fillColor=#b1ddf0;strokeColor=#10739e;" parent="1" vertex="1">
                    <mxGeometry x="482" y="696" width="90" height="50" as="geometry"/>
                </mxCell>
                <mxCell id="XcYWLEh5awnd829Z7v2t-105" value="3in2out" style="rounded=0;whiteSpace=wrap;html=1;fillColor=#f0a30a;fontColor=#000000;strokeColor=#BD7000;" parent="1" vertex="1">
                    <mxGeometry x="42" y="516" width="90" height="50" as="geometry"/>
                </mxCell>
                <mxCell id="XcYWLEh5awnd829Z7v2t-106" value="3in2out" style="rounded=0;whiteSpace=wrap;html=1;fillColor=#f0a30a;fontColor=#000000;strokeColor=#BD7000;" parent="1" vertex="1">
                    <mxGeometry x="42" y="606" width="90" height="50" as="geometry"/>
                </mxCell>
                <mxCell id="XcYWLEh5awnd829Z7v2t-107" value="3in2out" style="rounded=0;whiteSpace=wrap;html=1;fillColor=#f0a30a;fontColor=#000000;strokeColor=#BD7000;" parent="1" vertex="1">
                    <mxGeometry x="42" y="516" width="90" height="50" as="geometry"/>
                </mxCell>
                <mxCell id="XcYWLEh5awnd829Z7v2t-108" value="3in2out" style="rounded=0;whiteSpace=wrap;html=1;fillColor=#f0a30a;fontColor=#000000;strokeColor=#BD7000;" parent="1" vertex="1">
                    <mxGeometry x="42" y="606" width="90" height="50" as="geometry"/>
                </mxCell>
                <mxCell id="XcYWLEh5awnd829Z7v2t-109" value="3in2out" style="rounded=0;whiteSpace=wrap;html=1;fillColor=#f0a30a;fontColor=#000000;strokeColor=#BD7000;" parent="1" vertex="1">
                    <mxGeometry x="42" y="696" width="90" height="50" as="geometry"/>
                </mxCell>
                <mxCell id="XcYWLEh5awnd829Z7v2t-110" value="3in2out" style="rounded=0;whiteSpace=wrap;html=1;fillColor=#f0a30a;fontColor=#000000;strokeColor=#BD7000;" parent="1" vertex="1">
                    <mxGeometry x="42" y="516" width="90" height="50" as="geometry"/>
                </mxCell>
                <mxCell id="XcYWLEh5awnd829Z7v2t-111" value="3in2out" style="rounded=0;whiteSpace=wrap;html=1;fillColor=#f0a30a;fontColor=#000000;strokeColor=#BD7000;" parent="1" vertex="1">
                    <mxGeometry x="42" y="606" width="90" height="50" as="geometry"/>
                </mxCell>
                <mxCell id="XcYWLEh5awnd829Z7v2t-112" value="3in2out" style="rounded=0;whiteSpace=wrap;html=1;fillColor=#f0a30a;fontColor=#000000;strokeColor=#BD7000;" parent="1" vertex="1">
                    <mxGeometry x="42" y="696" width="90" height="50" as="geometry"/>
                </mxCell>
                <mxCell id="XcYWLEh5awnd829Z7v2t-113" value="2in2out" style="rounded=0;whiteSpace=wrap;html=1;" parent="1" vertex="1">
                    <mxGeometry x="282" y="516" width="90" height="50" as="geometry"/>
                </mxCell>
                <mxCell id="XcYWLEh5awnd829Z7v2t-114" value="2in1out" style="rounded=0;whiteSpace=wrap;html=1;" parent="1" vertex="1">
                    <mxGeometry x="282" y="606" width="90" height="50" as="geometry"/>
                </mxCell>
                <mxCell id="XcYWLEh5awnd829Z7v2t-115" value="2in2out" style="rounded=0;whiteSpace=wrap;html=1;" parent="1" vertex="1">
                    <mxGeometry x="282" y="696" width="90" height="50" as="geometry"/>
                </mxCell>
                <mxCell id="XcYWLEh5awnd829Z7v2t-116" value="2in1out" style="rounded=0;whiteSpace=wrap;html=1;" parent="1" vertex="1">
                    <mxGeometry x="282" y="786" width="90" height="50" as="geometry"/>
                </mxCell>
                <mxCell id="XcYWLEh5awnd829Z7v2t-117" value="3in2out" style="rounded=0;whiteSpace=wrap;html=1;fillColor=#fad7ac;strokeColor=#b46504;" parent="1" vertex="1">
                    <mxGeometry x="42" y="516" width="90" height="50" as="geometry"/>
                </mxCell>
                <mxCell id="XcYWLEh5awnd829Z7v2t-118" value="3in2out" style="rounded=0;whiteSpace=wrap;html=1;fillColor=#fad7ac;strokeColor=#b46504;" parent="1" vertex="1">
                    <mxGeometry x="42" y="606" width="90" height="50" as="geometry"/>
                </mxCell>
                <mxCell id="XcYWLEh5awnd829Z7v2t-119" value="3in2out" style="rounded=0;whiteSpace=wrap;html=1;fillColor=#fad7ac;strokeColor=#b46504;" parent="1" vertex="1">
                    <mxGeometry x="42" y="696" width="90" height="50" as="geometry"/>
                </mxCell>
                <mxCell id="XcYWLEh5awnd829Z7v2t-120" style="edgeStyle=orthogonalEdgeStyle;rounded=0;sketch=0;jumpStyle=arc;orthogonalLoop=1;jettySize=auto;html=1;exitX=1;exitY=0.25;exitDx=0;exitDy=0;entryX=0;entryY=0.75;entryDx=0;entryDy=0;" parent="1" source="XcYWLEh5awnd829Z7v2t-121" target="XcYWLEh5awnd829Z7v2t-104" edge="1">
                    <mxGeometry relative="1" as="geometry">
                        <mxPoint x="462" y="746" as="targetPoint"/>
                        <Array as="points">
                            <mxPoint x="442" y="529"/>
                            <mxPoint x="442" y="733"/>
                        </Array>
                    </mxGeometry>
                </mxCell>
                <mxCell id="XcYWLEh5awnd829Z7v2t-121" value="2in2out" style="rounded=0;whiteSpace=wrap;html=1;strokeColor=#10739e;fillColor=#b1ddf0;" parent="1" vertex="1">
                    <mxGeometry x="282" y="516" width="90" height="50" as="geometry"/>
                </mxCell>
                <mxCell id="XcYWLEh5awnd829Z7v2t-122" value="2in1out" style="rounded=0;whiteSpace=wrap;html=1;strokeColor=#56517e;fillColor=#d0cee2;" parent="1" vertex="1">
                    <mxGeometry x="282" y="606" width="90" height="50" as="geometry"/>
                </mxCell>
                <mxCell id="XcYWLEh5awnd829Z7v2t-123" value="2in2out" style="rounded=0;whiteSpace=wrap;html=1;strokeColor=#10739e;fillColor=#b1ddf0;" parent="1" vertex="1">
                    <mxGeometry x="282" y="696" width="90" height="50" as="geometry"/>
                </mxCell>
                <mxCell id="XcYWLEh5awnd829Z7v2t-124" value="2in1out" style="rounded=0;whiteSpace=wrap;html=1;strokeColor=#56517E;fillColor=#d0cee2;" parent="1" vertex="1">
                    <mxGeometry x="282" y="786" width="90" height="50" as="geometry"/>
                </mxCell>
                <mxCell id="XcYWLEh5awnd829Z7v2t-125" style="edgeStyle=orthogonalEdgeStyle;rounded=0;sketch=0;jumpStyle=arc;orthogonalLoop=1;jettySize=auto;html=1;exitX=1;exitY=0.5;exitDx=0;exitDy=0;entryX=0;entryY=0.5;entryDx=0;entryDy=0;" parent="1" source="XcYWLEh5awnd829Z7v2t-126" target="XcYWLEh5awnd829Z7v2t-134" edge="1">
                    <mxGeometry relative="1" as="geometry">
                        <mxPoint x="882" y="810.7241379310344" as="targetPoint"/>
                    </mxGeometry>
                </mxCell>
                <mxCell id="XcYWLEh5awnd829Z7v2t-126" value="3in1out" style="rounded=0;whiteSpace=wrap;html=1;strokeColor=#ae4132;fillColor=#fad9d5;" parent="1" vertex="1">
                    <mxGeometry x="712" y="786" width="90" height="50" as="geometry"/>
                </mxCell>
                <mxCell id="XcYWLEh5awnd829Z7v2t-133" style="edgeStyle=orthogonalEdgeStyle;rounded=0;sketch=0;jumpStyle=arc;orthogonalLoop=1;jettySize=auto;html=1;exitX=1;exitY=0.25;exitDx=0;exitDy=0;" parent="1" source="XcYWLEh5awnd829Z7v2t-128" edge="1">
                    <mxGeometry relative="1" as="geometry">
                        <mxPoint x="1122" y="709" as="targetPoint"/>
                    </mxGeometry>
                </mxCell>
                <mxCell id="XcYWLEh5awnd829Z7v2t-135" style="edgeStyle=orthogonalEdgeStyle;rounded=0;sketch=0;jumpStyle=arc;orthogonalLoop=1;jettySize=auto;html=1;exitX=1;exitY=0.75;exitDx=0;exitDy=0;entryX=0;entryY=0.75;entryDx=0;entryDy=0;" parent="1" source="XcYWLEh5awnd829Z7v2t-128" target="XcYWLEh5awnd829Z7v2t-134" edge="1">
                    <mxGeometry relative="1" as="geometry">
                        <Array as="points">
                            <mxPoint x="852" y="733"/>
                            <mxPoint x="852" y="823"/>
                        </Array>
                    </mxGeometry>
                </mxCell>
                <mxCell id="XcYWLEh5awnd829Z7v2t-128" value="2in2out" style="rounded=0;whiteSpace=wrap;html=1;fillColor=#b1ddf0;strokeColor=#10739e;" parent="1" vertex="1">
                    <mxGeometry x="712" y="696" width="90" height="50" as="geometry"/>
                </mxCell>
                <mxCell id="XcYWLEh5awnd829Z7v2t-136" style="edgeStyle=orthogonalEdgeStyle;rounded=0;sketch=0;jumpStyle=arc;orthogonalLoop=1;jettySize=auto;html=1;exitX=1;exitY=0.5;exitDx=0;exitDy=0;" parent="1" source="XcYWLEh5awnd829Z7v2t-134" edge="1">
                    <mxGeometry relative="1" as="geometry">
                        <mxPoint x="1122" y="811" as="targetPoint"/>
                    </mxGeometry>
                </mxCell>
                <mxCell id="XcYWLEh5awnd829Z7v2t-134" value="3in1out" style="rounded=0;whiteSpace=wrap;html=1;strokeColor=#ae4132;fillColor=#fad9d5;" parent="1" vertex="1">
                    <mxGeometry x="942" y="786" width="90" height="50" as="geometry"/>
                </mxCell>
                <mxCell id="XcYWLEh5awnd829Z7v2t-137" value="Submin" style="text;html=1;strokeColor=none;fillColor=none;align=center;verticalAlign=middle;whiteSpace=wrap;rounded=0;" parent="1" vertex="1">
                    <mxGeometry x="1062" y="776" width="60" height="30" as="geometry"/>
                </mxCell>
                <mxCell id="XcYWLEh5awnd829Z7v2t-138" value="Submin" style="text;html=1;strokeColor=none;fillColor=none;align=center;verticalAlign=middle;whiteSpace=wrap;rounded=0;" parent="1" vertex="1">
                    <mxGeometry x="812" y="357" width="60" height="30" as="geometry"/>
                </mxCell>
                <mxCell id="XcYWLEh5awnd829Z7v2t-139" value="Submin" style="text;html=1;strokeColor=none;fillColor=none;align=center;verticalAlign=middle;whiteSpace=wrap;rounded=0;" parent="1" vertex="1">
                    <mxGeometry x="802" y="826" width="60" height="30" as="geometry"/>
                </mxCell>
                <mxCell id="XcYWLEh5awnd829Z7v2t-140" value="Min" style="text;html=1;strokeColor=none;fillColor=none;align=center;verticalAlign=middle;whiteSpace=wrap;rounded=0;" parent="1" vertex="1">
                    <mxGeometry x="572" y="676" width="60" height="30" as="geometry"/>
                </mxCell>
                <mxCell id="XcYWLEh5awnd829Z7v2t-141" value="Min" style="text;html=1;strokeColor=none;fillColor=none;align=center;verticalAlign=middle;whiteSpace=wrap;rounded=0;" parent="1" vertex="1">
                    <mxGeometry x="572" y="257" width="60" height="30" as="geometry"/>
                </mxCell>
                <mxCell id="XcYWLEh5awnd829Z7v2t-142" value="Min" style="text;html=1;strokeColor=none;fillColor=none;align=center;verticalAlign=middle;whiteSpace=wrap;rounded=0;" parent="1" vertex="1">
                    <mxGeometry x="382" y="41" width="60" height="30" as="geometry"/>
                </mxCell>
                <mxCell id="XcYWLEh5awnd829Z7v2t-143" value="Min" style="text;html=1;strokeColor=none;fillColor=none;align=center;verticalAlign=middle;whiteSpace=wrap;rounded=0;" parent="1" vertex="1">
                    <mxGeometry x="372" y="257" width="60" height="30" as="geometry"/>
                </mxCell>
                <mxCell id="XcYWLEh5awnd829Z7v2t-144" value="Min" style="text;html=1;strokeColor=none;fillColor=none;align=center;verticalAlign=middle;whiteSpace=wrap;rounded=0;" parent="1" vertex="1">
                    <mxGeometry x="372" y="496" width="60" height="30" as="geometry"/>
                </mxCell>
                <mxCell id="XcYWLEh5awnd829Z7v2t-145" value="Min" style="text;html=1;strokeColor=none;fillColor=none;align=center;verticalAlign=middle;whiteSpace=wrap;rounded=0;" parent="1" vertex="1">
                    <mxGeometry x="372" y="666" width="60" height="30" as="geometry"/>
                </mxCell>
            </root>
        </mxGraphModel>
    </diagram>
    <diagram id="c7_tr57t6KfMitoTC8Gy" name="4x8 and 4x16">
        <mxGraphModel dx="1290" dy="591" grid="1" gridSize="10" guides="1" tooltips="1" connect="1" arrows="1" fold="1" page="1" pageScale="1" pageWidth="1169" pageHeight="827" math="0" shadow="0">
            <root>
                <mxCell id="eqx-eZxJ1z1TLWpzY9fE-0"/>
                <mxCell id="eqx-eZxJ1z1TLWpzY9fE-1" parent="eqx-eZxJ1z1TLWpzY9fE-0"/>
                <mxCell id="3pBVLkPTQarqt65aSBSf-0" style="edgeStyle=orthogonalEdgeStyle;rounded=0;sketch=0;jumpStyle=none;orthogonalLoop=1;jettySize=auto;html=1;exitX=1;exitY=0.25;exitDx=0;exitDy=0;entryX=0;entryY=0.25;entryDx=0;entryDy=0;fontFamily=Times New Roman;fontSize=14;" parent="eqx-eZxJ1z1TLWpzY9fE-1" source="tFl9uGkHDT9p-fPgOOzL-0" target="tFl9uGkHDT9p-fPgOOzL-6" edge="1">
                    <mxGeometry relative="1" as="geometry"/>
                </mxCell>
                <mxCell id="3pBVLkPTQarqt65aSBSf-8" style="edgeStyle=orthogonalEdgeStyle;rounded=0;sketch=0;jumpStyle=arc;orthogonalLoop=1;jettySize=auto;html=1;exitX=1;exitY=0.75;exitDx=0;exitDy=0;entryX=0;entryY=0.25;entryDx=0;entryDy=0;fontFamily=Times New Roman;fontSize=14;" parent="eqx-eZxJ1z1TLWpzY9fE-1" source="tFl9uGkHDT9p-fPgOOzL-0" target="3pBVLkPTQarqt65aSBSf-7" edge="1">
                    <mxGeometry relative="1" as="geometry">
                        <Array as="points">
                            <mxPoint x="220" y="168"/>
                            <mxPoint x="220" y="260"/>
                            <mxPoint x="290" y="260"/>
                            <mxPoint x="290" y="323"/>
                        </Array>
                    </mxGeometry>
                </mxCell>
                <mxCell id="tFl9uGkHDT9p-fPgOOzL-0" value="3in2out" style="rounded=0;whiteSpace=wrap;html=1;fillColor=#fad7ac;strokeColor=#b46504;" parent="eqx-eZxJ1z1TLWpzY9fE-1" vertex="1">
                    <mxGeometry x="90" y="130" width="90" height="50" as="geometry"/>
                </mxCell>
                <mxCell id="3pBVLkPTQarqt65aSBSf-1" style="edgeStyle=orthogonalEdgeStyle;rounded=0;sketch=0;jumpStyle=arc;orthogonalLoop=1;jettySize=auto;html=1;exitX=1;exitY=0.25;exitDx=0;exitDy=0;entryX=0;entryY=0.5;entryDx=0;entryDy=0;fontFamily=Times New Roman;fontSize=14;" parent="eqx-eZxJ1z1TLWpzY9fE-1" source="tFl9uGkHDT9p-fPgOOzL-1" target="tFl9uGkHDT9p-fPgOOzL-6" edge="1">
                    <mxGeometry relative="1" as="geometry">
                        <Array as="points">
                            <mxPoint x="250" y="233"/>
                            <mxPoint x="250" y="155"/>
                        </Array>
                    </mxGeometry>
                </mxCell>
                <mxCell id="3pBVLkPTQarqt65aSBSf-9" style="edgeStyle=orthogonalEdgeStyle;rounded=0;sketch=0;jumpStyle=arc;orthogonalLoop=1;jettySize=auto;html=1;exitX=1;exitY=0.75;exitDx=0;exitDy=0;entryX=0;entryY=0.5;entryDx=0;entryDy=0;fontFamily=Times New Roman;fontSize=14;" parent="eqx-eZxJ1z1TLWpzY9fE-1" source="tFl9uGkHDT9p-fPgOOzL-1" target="3pBVLkPTQarqt65aSBSf-7" edge="1">
                    <mxGeometry relative="1" as="geometry">
                        <Array as="points">
                            <mxPoint x="200" y="258"/>
                            <mxPoint x="200" y="335"/>
                        </Array>
                    </mxGeometry>
                </mxCell>
                <mxCell id="tFl9uGkHDT9p-fPgOOzL-1" value="3in2out" style="rounded=0;whiteSpace=wrap;html=1;fillColor=#fad7ac;strokeColor=#b46504;" parent="eqx-eZxJ1z1TLWpzY9fE-1" vertex="1">
                    <mxGeometry x="90" y="220" width="90" height="50" as="geometry"/>
                </mxCell>
                <mxCell id="3pBVLkPTQarqt65aSBSf-12" style="edgeStyle=orthogonalEdgeStyle;rounded=0;sketch=0;jumpStyle=arc;orthogonalLoop=1;jettySize=auto;html=1;exitX=1;exitY=0.5;exitDx=0;exitDy=0;fontFamily=Times New Roman;fontSize=14;entryX=0;entryY=0.25;entryDx=0;entryDy=0;" parent="eqx-eZxJ1z1TLWpzY9fE-1" source="tFl9uGkHDT9p-fPgOOzL-3" target="4y-eCe1_CO6v1rLgRGb5-1" edge="1">
                    <mxGeometry relative="1" as="geometry">
                        <mxPoint x="750" y="335.16666666666674" as="targetPoint"/>
                        <Array as="points">
                            <mxPoint x="750" y="335"/>
                            <mxPoint x="750" y="621"/>
                        </Array>
                    </mxGeometry>
                </mxCell>
                <mxCell id="tFl9uGkHDT9p-fPgOOzL-3" value="2in1out" style="rounded=0;whiteSpace=wrap;html=1;strokeColor=#56517e;fillColor=#d0cee2;" parent="eqx-eZxJ1z1TLWpzY9fE-1" vertex="1">
                    <mxGeometry x="550" y="310" width="90" height="50" as="geometry"/>
                </mxCell>
                <mxCell id="3pBVLkPTQarqt65aSBSf-2" style="edgeStyle=orthogonalEdgeStyle;rounded=0;sketch=0;jumpStyle=arc;orthogonalLoop=1;jettySize=auto;html=1;exitX=1;exitY=0.25;exitDx=0;exitDy=0;entryX=0;entryY=0.75;entryDx=0;entryDy=0;fontFamily=Times New Roman;fontSize=14;" parent="eqx-eZxJ1z1TLWpzY9fE-1" source="tFl9uGkHDT9p-fPgOOzL-5" target="tFl9uGkHDT9p-fPgOOzL-6" edge="1">
                    <mxGeometry relative="1" as="geometry">
                        <Array as="points">
                            <mxPoint x="270" y="323"/>
                            <mxPoint x="270" y="168"/>
                        </Array>
                    </mxGeometry>
                </mxCell>
                <mxCell id="3pBVLkPTQarqt65aSBSf-10" style="edgeStyle=orthogonalEdgeStyle;rounded=0;sketch=0;jumpStyle=arc;orthogonalLoop=1;jettySize=auto;html=1;exitX=1;exitY=0.75;exitDx=0;exitDy=0;entryX=0;entryY=0.75;entryDx=0;entryDy=0;fontFamily=Times New Roman;fontSize=14;" parent="eqx-eZxJ1z1TLWpzY9fE-1" source="tFl9uGkHDT9p-fPgOOzL-5" target="3pBVLkPTQarqt65aSBSf-7" edge="1">
                    <mxGeometry relative="1" as="geometry"/>
                </mxCell>
                <mxCell id="tFl9uGkHDT9p-fPgOOzL-5" value="2in2out" style="rounded=0;whiteSpace=wrap;html=1;strokeColor=#10739e;fillColor=#b1ddf0;" parent="eqx-eZxJ1z1TLWpzY9fE-1" vertex="1">
                    <mxGeometry x="90" y="310" width="90" height="50" as="geometry"/>
                </mxCell>
                <mxCell id="3pBVLkPTQarqt65aSBSf-4" style="edgeStyle=orthogonalEdgeStyle;rounded=0;sketch=0;jumpStyle=none;orthogonalLoop=1;jettySize=auto;html=1;exitX=1;exitY=0.25;exitDx=0;exitDy=0;fontFamily=Times New Roman;fontSize=14;entryX=0;entryY=0.75;entryDx=0;entryDy=0;" parent="eqx-eZxJ1z1TLWpzY9fE-1" source="tFl9uGkHDT9p-fPgOOzL-6" target="4y-eCe1_CO6v1rLgRGb5-2" edge="1">
                    <mxGeometry relative="1" as="geometry">
                        <mxPoint x="590" y="143" as="targetPoint"/>
                        <Array as="points">
                            <mxPoint x="510" y="143"/>
                            <mxPoint x="510" y="467"/>
                        </Array>
                    </mxGeometry>
                </mxCell>
                <mxCell id="3pBVLkPTQarqt65aSBSf-13" style="edgeStyle=orthogonalEdgeStyle;rounded=0;sketch=0;jumpStyle=arc;orthogonalLoop=1;jettySize=auto;html=1;exitX=1;exitY=0.75;exitDx=0;exitDy=0;entryX=0;entryY=0.25;entryDx=0;entryDy=0;fontFamily=Times New Roman;fontSize=14;" parent="eqx-eZxJ1z1TLWpzY9fE-1" source="tFl9uGkHDT9p-fPgOOzL-6" target="tFl9uGkHDT9p-fPgOOzL-3" edge="1">
                    <mxGeometry relative="1" as="geometry"/>
                </mxCell>
                <mxCell id="tFl9uGkHDT9p-fPgOOzL-6" value="3in2out" style="rounded=0;whiteSpace=wrap;html=1;fillColor=#fad7ac;strokeColor=#b46504;" parent="eqx-eZxJ1z1TLWpzY9fE-1" vertex="1">
                    <mxGeometry x="320" y="130" width="90" height="50" as="geometry"/>
                </mxCell>
                <mxCell id="3pBVLkPTQarqt65aSBSf-5" value="Min" style="text;html=1;strokeColor=none;fillColor=none;align=center;verticalAlign=middle;whiteSpace=wrap;rounded=0;fontFamily=Times New Roman;fontSize=14;" parent="eqx-eZxJ1z1TLWpzY9fE-1" vertex="1">
                    <mxGeometry x="450" y="111" width="60" height="30" as="geometry"/>
                </mxCell>
                <mxCell id="3pBVLkPTQarqt65aSBSf-11" style="edgeStyle=orthogonalEdgeStyle;rounded=0;sketch=0;jumpStyle=arc;orthogonalLoop=1;jettySize=auto;html=1;exitX=1;exitY=0.5;exitDx=0;exitDy=0;fontFamily=Times New Roman;fontSize=14;" parent="eqx-eZxJ1z1TLWpzY9fE-1" source="3pBVLkPTQarqt65aSBSf-7" target="tFl9uGkHDT9p-fPgOOzL-3" edge="1">
                    <mxGeometry relative="1" as="geometry"/>
                </mxCell>
                <mxCell id="3pBVLkPTQarqt65aSBSf-7" value="3in1out" style="rounded=0;whiteSpace=wrap;html=1;strokeColor=#ae4132;fillColor=#fad9d5;" parent="eqx-eZxJ1z1TLWpzY9fE-1" vertex="1">
                    <mxGeometry x="320" y="310" width="90" height="50" as="geometry"/>
                </mxCell>
                <mxCell id="3pBVLkPTQarqt65aSBSf-14" value="Submin" style="text;html=1;strokeColor=none;fillColor=none;align=center;verticalAlign=middle;whiteSpace=wrap;rounded=0;fontFamily=Times New Roman;fontSize=14;" parent="eqx-eZxJ1z1TLWpzY9fE-1" vertex="1">
                    <mxGeometry x="680" y="300" width="60" height="30" as="geometry"/>
                </mxCell>
                <mxCell id="ZiSOsTdttNAyyR6bl1Bo-0" style="edgeStyle=orthogonalEdgeStyle;rounded=0;sketch=0;jumpStyle=none;orthogonalLoop=1;jettySize=auto;html=1;exitX=1;exitY=0.25;exitDx=0;exitDy=0;entryX=0;entryY=0.25;entryDx=0;entryDy=0;fontFamily=Times New Roman;fontSize=14;" parent="eqx-eZxJ1z1TLWpzY9fE-1" source="ZiSOsTdttNAyyR6bl1Bo-2" target="ZiSOsTdttNAyyR6bl1Bo-13" edge="1">
                    <mxGeometry relative="1" as="geometry"/>
                </mxCell>
                <mxCell id="ZiSOsTdttNAyyR6bl1Bo-1" style="edgeStyle=orthogonalEdgeStyle;rounded=0;sketch=0;jumpStyle=arc;orthogonalLoop=1;jettySize=auto;html=1;exitX=1;exitY=0.75;exitDx=0;exitDy=0;entryX=0;entryY=0.25;entryDx=0;entryDy=0;fontFamily=Times New Roman;fontSize=14;" parent="eqx-eZxJ1z1TLWpzY9fE-1" source="ZiSOsTdttNAyyR6bl1Bo-2" target="ZiSOsTdttNAyyR6bl1Bo-16" edge="1">
                    <mxGeometry relative="1" as="geometry">
                        <Array as="points">
                            <mxPoint x="220" y="467"/>
                            <mxPoint x="220" y="559"/>
                            <mxPoint x="290" y="559"/>
                            <mxPoint x="290" y="622"/>
                        </Array>
                    </mxGeometry>
                </mxCell>
                <mxCell id="ZiSOsTdttNAyyR6bl1Bo-2" value="3in2out" style="rounded=0;whiteSpace=wrap;html=1;fillColor=#fad7ac;strokeColor=#b46504;" parent="eqx-eZxJ1z1TLWpzY9fE-1" vertex="1">
                    <mxGeometry x="90" y="429" width="90" height="50" as="geometry"/>
                </mxCell>
                <mxCell id="ZiSOsTdttNAyyR6bl1Bo-3" style="edgeStyle=orthogonalEdgeStyle;rounded=0;sketch=0;jumpStyle=arc;orthogonalLoop=1;jettySize=auto;html=1;exitX=1;exitY=0.25;exitDx=0;exitDy=0;entryX=0;entryY=0.5;entryDx=0;entryDy=0;fontFamily=Times New Roman;fontSize=14;" parent="eqx-eZxJ1z1TLWpzY9fE-1" source="ZiSOsTdttNAyyR6bl1Bo-5" target="ZiSOsTdttNAyyR6bl1Bo-13" edge="1">
                    <mxGeometry relative="1" as="geometry">
                        <Array as="points">
                            <mxPoint x="250" y="532"/>
                            <mxPoint x="250" y="454"/>
                        </Array>
                    </mxGeometry>
                </mxCell>
                <mxCell id="ZiSOsTdttNAyyR6bl1Bo-4" style="edgeStyle=orthogonalEdgeStyle;rounded=0;sketch=0;jumpStyle=arc;orthogonalLoop=1;jettySize=auto;html=1;exitX=1;exitY=0.75;exitDx=0;exitDy=0;entryX=0;entryY=0.5;entryDx=0;entryDy=0;fontFamily=Times New Roman;fontSize=14;" parent="eqx-eZxJ1z1TLWpzY9fE-1" source="ZiSOsTdttNAyyR6bl1Bo-5" target="ZiSOsTdttNAyyR6bl1Bo-16" edge="1">
                    <mxGeometry relative="1" as="geometry">
                        <Array as="points">
                            <mxPoint x="200" y="557"/>
                            <mxPoint x="200" y="634"/>
                        </Array>
                    </mxGeometry>
                </mxCell>
                <mxCell id="ZiSOsTdttNAyyR6bl1Bo-5" value="3in2out" style="rounded=0;whiteSpace=wrap;html=1;fillColor=#fad7ac;strokeColor=#b46504;" parent="eqx-eZxJ1z1TLWpzY9fE-1" vertex="1">
                    <mxGeometry x="90" y="519" width="90" height="50" as="geometry"/>
                </mxCell>
                <mxCell id="ZiSOsTdttNAyyR6bl1Bo-6" style="edgeStyle=orthogonalEdgeStyle;rounded=0;sketch=0;jumpStyle=arc;orthogonalLoop=1;jettySize=auto;html=1;exitX=1;exitY=0.5;exitDx=0;exitDy=0;fontFamily=Times New Roman;fontSize=14;entryX=0;entryY=0.5;entryDx=0;entryDy=0;" parent="eqx-eZxJ1z1TLWpzY9fE-1" source="ZiSOsTdttNAyyR6bl1Bo-7" target="4y-eCe1_CO6v1rLgRGb5-1" edge="1">
                    <mxGeometry relative="1" as="geometry">
                        <mxPoint x="750" y="634.1666666666667" as="targetPoint"/>
                    </mxGeometry>
                </mxCell>
                <mxCell id="ZiSOsTdttNAyyR6bl1Bo-7" value="2in1out" style="rounded=0;whiteSpace=wrap;html=1;strokeColor=#56517e;fillColor=#d0cee2;" parent="eqx-eZxJ1z1TLWpzY9fE-1" vertex="1">
                    <mxGeometry x="550" y="609" width="90" height="50" as="geometry"/>
                </mxCell>
                <mxCell id="ZiSOsTdttNAyyR6bl1Bo-8" style="edgeStyle=orthogonalEdgeStyle;rounded=0;sketch=0;jumpStyle=arc;orthogonalLoop=1;jettySize=auto;html=1;exitX=1;exitY=0.25;exitDx=0;exitDy=0;entryX=0;entryY=0.75;entryDx=0;entryDy=0;fontFamily=Times New Roman;fontSize=14;" parent="eqx-eZxJ1z1TLWpzY9fE-1" source="ZiSOsTdttNAyyR6bl1Bo-10" target="ZiSOsTdttNAyyR6bl1Bo-13" edge="1">
                    <mxGeometry relative="1" as="geometry">
                        <Array as="points">
                            <mxPoint x="270" y="622"/>
                            <mxPoint x="270" y="467"/>
                        </Array>
                    </mxGeometry>
                </mxCell>
                <mxCell id="ZiSOsTdttNAyyR6bl1Bo-9" style="edgeStyle=orthogonalEdgeStyle;rounded=0;sketch=0;jumpStyle=arc;orthogonalLoop=1;jettySize=auto;html=1;exitX=1;exitY=0.75;exitDx=0;exitDy=0;entryX=0;entryY=0.75;entryDx=0;entryDy=0;fontFamily=Times New Roman;fontSize=14;" parent="eqx-eZxJ1z1TLWpzY9fE-1" source="ZiSOsTdttNAyyR6bl1Bo-10" target="ZiSOsTdttNAyyR6bl1Bo-16" edge="1">
                    <mxGeometry relative="1" as="geometry"/>
                </mxCell>
                <mxCell id="ZiSOsTdttNAyyR6bl1Bo-10" value="2in2out" style="rounded=0;whiteSpace=wrap;html=1;strokeColor=#10739e;fillColor=#b1ddf0;" parent="eqx-eZxJ1z1TLWpzY9fE-1" vertex="1">
                    <mxGeometry x="90" y="609" width="90" height="50" as="geometry"/>
                </mxCell>
                <mxCell id="ZiSOsTdttNAyyR6bl1Bo-11" style="edgeStyle=orthogonalEdgeStyle;rounded=0;sketch=0;jumpStyle=arc;orthogonalLoop=1;jettySize=auto;html=1;exitX=1;exitY=0.25;exitDx=0;exitDy=0;fontFamily=Times New Roman;fontSize=14;entryX=0;entryY=0.25;entryDx=0;entryDy=0;" parent="eqx-eZxJ1z1TLWpzY9fE-1" source="ZiSOsTdttNAyyR6bl1Bo-13" target="4y-eCe1_CO6v1rLgRGb5-2" edge="1">
                    <mxGeometry relative="1" as="geometry">
                        <mxPoint x="589.9999999999998" y="442" as="targetPoint"/>
                    </mxGeometry>
                </mxCell>
                <mxCell id="ZiSOsTdttNAyyR6bl1Bo-12" style="edgeStyle=orthogonalEdgeStyle;rounded=0;sketch=0;jumpStyle=arc;orthogonalLoop=1;jettySize=auto;html=1;exitX=1;exitY=0.75;exitDx=0;exitDy=0;entryX=0;entryY=0.25;entryDx=0;entryDy=0;fontFamily=Times New Roman;fontSize=14;" parent="eqx-eZxJ1z1TLWpzY9fE-1" source="ZiSOsTdttNAyyR6bl1Bo-13" target="ZiSOsTdttNAyyR6bl1Bo-7" edge="1">
                    <mxGeometry relative="1" as="geometry"/>
                </mxCell>
                <mxCell id="ZiSOsTdttNAyyR6bl1Bo-13" value="3in2out" style="rounded=0;whiteSpace=wrap;html=1;fillColor=#fad7ac;strokeColor=#b46504;" parent="eqx-eZxJ1z1TLWpzY9fE-1" vertex="1">
                    <mxGeometry x="320" y="429" width="90" height="50" as="geometry"/>
                </mxCell>
                <mxCell id="ZiSOsTdttNAyyR6bl1Bo-14" value="Min" style="text;html=1;strokeColor=none;fillColor=none;align=center;verticalAlign=middle;whiteSpace=wrap;rounded=0;fontFamily=Times New Roman;fontSize=14;" parent="eqx-eZxJ1z1TLWpzY9fE-1" vertex="1">
                    <mxGeometry x="450" y="410" width="60" height="30" as="geometry"/>
                </mxCell>
                <mxCell id="ZiSOsTdttNAyyR6bl1Bo-15" style="edgeStyle=orthogonalEdgeStyle;rounded=0;sketch=0;jumpStyle=arc;orthogonalLoop=1;jettySize=auto;html=1;exitX=1;exitY=0.5;exitDx=0;exitDy=0;fontFamily=Times New Roman;fontSize=14;" parent="eqx-eZxJ1z1TLWpzY9fE-1" source="ZiSOsTdttNAyyR6bl1Bo-16" target="ZiSOsTdttNAyyR6bl1Bo-7" edge="1">
                    <mxGeometry relative="1" as="geometry"/>
                </mxCell>
                <mxCell id="ZiSOsTdttNAyyR6bl1Bo-16" value="3in1out" style="rounded=0;whiteSpace=wrap;html=1;strokeColor=#ae4132;fillColor=#fad9d5;" parent="eqx-eZxJ1z1TLWpzY9fE-1" vertex="1">
                    <mxGeometry x="320" y="609" width="90" height="50" as="geometry"/>
                </mxCell>
                <mxCell id="ZiSOsTdttNAyyR6bl1Bo-17" value="Submin" style="text;html=1;strokeColor=none;fillColor=none;align=center;verticalAlign=middle;whiteSpace=wrap;rounded=0;fontFamily=Times New Roman;fontSize=14;" parent="eqx-eZxJ1z1TLWpzY9fE-1" vertex="1">
                    <mxGeometry x="640" y="599" width="60" height="30" as="geometry"/>
                </mxCell>
                <mxCell id="4y-eCe1_CO6v1rLgRGb5-0" value="&lt;p style=&quot;line-height: 1.2&quot;&gt;&lt;/p&gt;&lt;div style=&quot;font-size: 24px&quot;&gt;&lt;font style=&quot;font-size: 24px&quot; face=&quot;Times New Roman&quot;&gt;4x8&lt;/font&gt;&lt;/div&gt;&lt;div style=&quot;font-size: 14px&quot;&gt;&lt;font style=&quot;font-size: 14px&quot; face=&quot;Times New Roman&quot;&gt;&lt;br&gt;&lt;/font&gt;&lt;/div&gt;&lt;div style=&quot;font-size: 24px&quot;&gt;&lt;font style=&quot;font-size: 24px&quot; face=&quot;Times New Roman&quot;&gt;4x16&lt;/font&gt;&lt;/div&gt;&lt;p&gt;&lt;/p&gt;" style="text;html=1;strokeColor=default;fillColor=none;align=left;verticalAlign=middle;whiteSpace=wrap;rounded=0;strokeWidth=2;" parent="eqx-eZxJ1z1TLWpzY9fE-1" vertex="1">
                    <mxGeometry x="980" y="40" width="130" height="90" as="geometry"/>
                </mxCell>
                <mxCell id="37BvUHP5x8nBsHJWyfMB-3" style="edgeStyle=orthogonalEdgeStyle;rounded=0;sketch=0;jumpStyle=arc;orthogonalLoop=1;jettySize=auto;html=1;exitX=1;exitY=0.5;exitDx=0;exitDy=0;fontFamily=Times New Roman;fontSize=14;" parent="eqx-eZxJ1z1TLWpzY9fE-1" source="4y-eCe1_CO6v1rLgRGb5-1" edge="1">
                    <mxGeometry relative="1" as="geometry">
                        <mxPoint x="970" y="633.6896551724137" as="targetPoint"/>
                    </mxGeometry>
                </mxCell>
                <mxCell id="4y-eCe1_CO6v1rLgRGb5-1" value="3in1out" style="rounded=0;whiteSpace=wrap;html=1;strokeColor=#ae4132;fillColor=#fad9d5;" parent="eqx-eZxJ1z1TLWpzY9fE-1" vertex="1">
                    <mxGeometry x="780" y="609" width="90" height="50" as="geometry"/>
                </mxCell>
                <mxCell id="37BvUHP5x8nBsHJWyfMB-0" style="edgeStyle=orthogonalEdgeStyle;rounded=0;sketch=0;jumpStyle=arc;orthogonalLoop=1;jettySize=auto;html=1;exitX=1;exitY=0.25;exitDx=0;exitDy=0;fontFamily=Times New Roman;fontSize=14;" parent="eqx-eZxJ1z1TLWpzY9fE-1" source="4y-eCe1_CO6v1rLgRGb5-2" edge="1">
                    <mxGeometry relative="1" as="geometry">
                        <mxPoint x="930" y="442" as="targetPoint"/>
                    </mxGeometry>
                </mxCell>
                <mxCell id="37BvUHP5x8nBsHJWyfMB-2" style="edgeStyle=orthogonalEdgeStyle;rounded=0;sketch=0;jumpStyle=arc;orthogonalLoop=1;jettySize=auto;html=1;exitX=1;exitY=0.75;exitDx=0;exitDy=0;entryX=0;entryY=0.75;entryDx=0;entryDy=0;fontFamily=Times New Roman;fontSize=14;" parent="eqx-eZxJ1z1TLWpzY9fE-1" source="4y-eCe1_CO6v1rLgRGb5-2" target="4y-eCe1_CO6v1rLgRGb5-1" edge="1">
                    <mxGeometry relative="1" as="geometry"/>
                </mxCell>
                <mxCell id="4y-eCe1_CO6v1rLgRGb5-2" value="2in2out" style="rounded=0;whiteSpace=wrap;html=1;strokeColor=#10739e;fillColor=#b1ddf0;" parent="eqx-eZxJ1z1TLWpzY9fE-1" vertex="1">
                    <mxGeometry x="550" y="429" width="90" height="50" as="geometry"/>
                </mxCell>
                <mxCell id="37BvUHP5x8nBsHJWyfMB-1" value="Min" style="text;html=1;strokeColor=none;fillColor=none;align=center;verticalAlign=middle;whiteSpace=wrap;rounded=0;fontFamily=Times New Roman;fontSize=14;" parent="eqx-eZxJ1z1TLWpzY9fE-1" vertex="1">
                    <mxGeometry x="860" y="410" width="60" height="30" as="geometry"/>
                </mxCell>
                <mxCell id="37BvUHP5x8nBsHJWyfMB-4" value="Submin" style="text;html=1;strokeColor=none;fillColor=none;align=center;verticalAlign=middle;whiteSpace=wrap;rounded=0;fontFamily=Times New Roman;fontSize=14;" parent="eqx-eZxJ1z1TLWpzY9fE-1" vertex="1">
                    <mxGeometry x="890" y="599" width="60" height="30" as="geometry"/>
                </mxCell>
                <mxCell id="37BvUHP5x8nBsHJWyfMB-5" value="" style="endArrow=none;dashed=1;html=1;rounded=0;sketch=0;fontFamily=Times New Roman;fontSize=14;jumpStyle=none;" parent="eqx-eZxJ1z1TLWpzY9fE-1" edge="1">
                    <mxGeometry width="50" height="50" relative="1" as="geometry">
                        <mxPoint x="40" y="400" as="sourcePoint"/>
                        <mxPoint x="970" y="400" as="targetPoint"/>
                    </mxGeometry>
                </mxCell>
            </root>
        </mxGraphModel>
    </diagram>
    <diagram id="a3OGC6rcXpps_aACLO5P" name="all">
        <mxGraphModel dx="2637" dy="1649" grid="1" gridSize="10" guides="1" tooltips="1" connect="1" arrows="1" fold="1" page="1" pageScale="1" pageWidth="1169" pageHeight="827" math="0" shadow="0">
            <root>
                <mxCell id="zdI7ANHuM2Bu_Ind4vU9-0"/>
                <mxCell id="zdI7ANHuM2Bu_Ind4vU9-1" parent="zdI7ANHuM2Bu_Ind4vU9-0"/>
                <mxCell id="X1xiSLFqcvYb4-pfKMKE-0" value="" style="rounded=0;whiteSpace=wrap;html=1;dashed=1;fontFamily=Comic Sans MS;fillColor=none;strokeColor=#9933FF;" vertex="1" parent="zdI7ANHuM2Bu_Ind4vU9-1">
                    <mxGeometry x="-160" y="-30" width="1210" height="640" as="geometry"/>
                </mxCell>
                <mxCell id="8z7F6mTt5Mdfna8yfUZV-136" value="" style="rounded=0;whiteSpace=wrap;html=1;dashed=1;fontFamily=Comic Sans MS;fillColor=none;strokeColor=#00CCCC;" vertex="1" parent="zdI7ANHuM2Bu_Ind4vU9-1">
                    <mxGeometry x="-120" y="10" width="1060" height="420" as="geometry"/>
                </mxCell>
                <mxCell id="8z7F6mTt5Mdfna8yfUZV-135" value="" style="group" vertex="1" connectable="0" parent="zdI7ANHuM2Bu_Ind4vU9-1">
                    <mxGeometry x="-100" y="30" width="870" height="240" as="geometry"/>
                </mxCell>
                <mxCell id="8z7F6mTt5Mdfna8yfUZV-133" value="" style="rounded=0;whiteSpace=wrap;html=1;fontFamily=Comic Sans MS;fillColor=none;dashed=1;strokeColor=#FF0000;" vertex="1" parent="8z7F6mTt5Mdfna8yfUZV-135">
                    <mxGeometry width="870" height="240" as="geometry"/>
                </mxCell>
                <mxCell id="8z7F6mTt5Mdfna8yfUZV-134" value="4x8" style="text;html=1;strokeColor=none;fillColor=none;align=center;verticalAlign=middle;whiteSpace=wrap;rounded=0;dashed=1;fontFamily=Comic Sans MS;" vertex="1" parent="8z7F6mTt5Mdfna8yfUZV-135">
                    <mxGeometry x="830.4545454545455" width="39.54545454545455" height="20" as="geometry"/>
                </mxCell>
                <mxCell id="8z7F6mTt5Mdfna8yfUZV-116" value="Min" style="text;html=1;strokeColor=none;fillColor=none;align=center;verticalAlign=middle;whiteSpace=wrap;rounded=0;fontFamily=Comic Sans MS;" vertex="1" parent="8z7F6mTt5Mdfna8yfUZV-135">
                    <mxGeometry x="570" y="20" width="60" height="30" as="geometry"/>
                </mxCell>
                <mxCell id="8z7F6mTt5Mdfna8yfUZV-0" style="edgeStyle=orthogonalEdgeStyle;rounded=0;orthogonalLoop=1;jettySize=auto;html=1;exitX=1;exitY=0.25;exitDx=0;exitDy=0;entryX=0;entryY=0.25;entryDx=0;entryDy=0;fontFamily=Comic Sans MS;" edge="1" parent="zdI7ANHuM2Bu_Ind4vU9-1" source="8z7F6mTt5Mdfna8yfUZV-2" target="8z7F6mTt5Mdfna8yfUZV-8">
                    <mxGeometry relative="1" as="geometry"/>
                </mxCell>
                <mxCell id="8z7F6mTt5Mdfna8yfUZV-1" style="edgeStyle=orthogonalEdgeStyle;rounded=0;orthogonalLoop=1;jettySize=auto;html=1;exitX=1;exitY=0.75;exitDx=0;exitDy=0;entryX=0;entryY=0.25;entryDx=0;entryDy=0;sketch=0;jumpStyle=arc;fontFamily=Comic Sans MS;" edge="1" parent="zdI7ANHuM2Bu_Ind4vU9-1" source="8z7F6mTt5Mdfna8yfUZV-2" target="8z7F6mTt5Mdfna8yfUZV-10">
                    <mxGeometry relative="1" as="geometry">
                        <Array as="points">
                            <mxPoint x="182" y="99"/>
                            <mxPoint x="182" y="164"/>
                        </Array>
                    </mxGeometry>
                </mxCell>
                <mxCell id="8z7F6mTt5Mdfna8yfUZV-2" value="3in2out" style="rounded=0;whiteSpace=wrap;html=1;fontFamily=Comic Sans MS;" vertex="1" parent="zdI7ANHuM2Bu_Ind4vU9-1">
                    <mxGeometry x="42" y="61" width="90" height="50" as="geometry"/>
                </mxCell>
                <mxCell id="8z7F6mTt5Mdfna8yfUZV-4" style="edgeStyle=orthogonalEdgeStyle;rounded=0;orthogonalLoop=1;jettySize=auto;html=1;exitX=1;exitY=0.25;exitDx=0;exitDy=0;entryX=0;entryY=0.75;entryDx=0;entryDy=0;jumpStyle=arc;fontFamily=Comic Sans MS;" edge="1" parent="zdI7ANHuM2Bu_Ind4vU9-1" source="8z7F6mTt5Mdfna8yfUZV-6" target="8z7F6mTt5Mdfna8yfUZV-8">
                    <mxGeometry relative="1" as="geometry">
                        <Array as="points">
                            <mxPoint x="152" y="164"/>
                            <mxPoint x="152" y="131"/>
                            <mxPoint x="212" y="131"/>
                            <mxPoint x="212" y="99"/>
                        </Array>
                    </mxGeometry>
                </mxCell>
                <mxCell id="8z7F6mTt5Mdfna8yfUZV-5" style="edgeStyle=orthogonalEdgeStyle;rounded=0;orthogonalLoop=1;jettySize=auto;html=1;exitX=1;exitY=0.75;exitDx=0;exitDy=0;entryX=0;entryY=0.75;entryDx=0;entryDy=0;fontFamily=Comic Sans MS;" edge="1" parent="zdI7ANHuM2Bu_Ind4vU9-1" source="8z7F6mTt5Mdfna8yfUZV-6" target="8z7F6mTt5Mdfna8yfUZV-10">
                    <mxGeometry relative="1" as="geometry"/>
                </mxCell>
                <mxCell id="8z7F6mTt5Mdfna8yfUZV-6" value="3in2out" style="rounded=0;whiteSpace=wrap;html=1;fontFamily=Comic Sans MS;" vertex="1" parent="zdI7ANHuM2Bu_Ind4vU9-1">
                    <mxGeometry x="42" y="151" width="90" height="50" as="geometry"/>
                </mxCell>
                <mxCell id="8z7F6mTt5Mdfna8yfUZV-7" style="edgeStyle=orthogonalEdgeStyle;rounded=0;sketch=0;jumpStyle=arc;orthogonalLoop=1;jettySize=auto;html=1;exitX=1;exitY=0.75;exitDx=0;exitDy=0;entryX=0;entryY=0.25;entryDx=0;entryDy=0;fontFamily=Comic Sans MS;" edge="1" parent="zdI7ANHuM2Bu_Ind4vU9-1" source="8z7F6mTt5Mdfna8yfUZV-8" target="8z7F6mTt5Mdfna8yfUZV-12">
                    <mxGeometry relative="1" as="geometry"/>
                </mxCell>
                <mxCell id="8z7F6mTt5Mdfna8yfUZV-8" value="2in2out" style="rounded=0;whiteSpace=wrap;html=1;fontFamily=Comic Sans MS;" vertex="1" parent="zdI7ANHuM2Bu_Ind4vU9-1">
                    <mxGeometry x="282" y="61" width="90" height="50" as="geometry"/>
                </mxCell>
                <mxCell id="8z7F6mTt5Mdfna8yfUZV-9" style="edgeStyle=orthogonalEdgeStyle;rounded=0;sketch=0;jumpStyle=arc;orthogonalLoop=1;jettySize=auto;html=1;exitX=1;exitY=0.75;exitDx=0;exitDy=0;entryX=0;entryY=0.75;entryDx=0;entryDy=0;fontFamily=Comic Sans MS;" edge="1" parent="zdI7ANHuM2Bu_Ind4vU9-1" source="8z7F6mTt5Mdfna8yfUZV-10" target="8z7F6mTt5Mdfna8yfUZV-12">
                    <mxGeometry relative="1" as="geometry"/>
                </mxCell>
                <mxCell id="8z7F6mTt5Mdfna8yfUZV-10" value="2in1out" style="rounded=0;whiteSpace=wrap;html=1;fontFamily=Comic Sans MS;" vertex="1" parent="zdI7ANHuM2Bu_Ind4vU9-1">
                    <mxGeometry x="282" y="151" width="90" height="50" as="geometry"/>
                </mxCell>
                <mxCell id="8z7F6mTt5Mdfna8yfUZV-11" style="edgeStyle=orthogonalEdgeStyle;rounded=0;sketch=0;jumpStyle=arc;orthogonalLoop=1;jettySize=auto;html=1;exitX=1;exitY=0.5;exitDx=0;exitDy=0;entryX=0;entryY=0.25;entryDx=0;entryDy=0;fontFamily=Comic Sans MS;" edge="1" parent="zdI7ANHuM2Bu_Ind4vU9-1" source="8z7F6mTt5Mdfna8yfUZV-12" target="8z7F6mTt5Mdfna8yfUZV-52">
                    <mxGeometry relative="1" as="geometry">
                        <Array as="points">
                            <mxPoint x="692" y="176"/>
                            <mxPoint x="692" y="384"/>
                        </Array>
                    </mxGeometry>
                </mxCell>
                <mxCell id="8z7F6mTt5Mdfna8yfUZV-12" value="2in1out" style="rounded=0;whiteSpace=wrap;html=1;fillColor=#d0cee2;strokeColor=#56517E;fontFamily=Comic Sans MS;" vertex="1" parent="zdI7ANHuM2Bu_Ind4vU9-1">
                    <mxGeometry x="482" y="151" width="90" height="50" as="geometry"/>
                </mxCell>
                <mxCell id="8z7F6mTt5Mdfna8yfUZV-13" value="Submin" style="text;html=1;strokeColor=none;fillColor=none;align=center;verticalAlign=middle;whiteSpace=wrap;rounded=0;fontFamily=Comic Sans MS;" vertex="1" parent="zdI7ANHuM2Bu_Ind4vU9-1">
                    <mxGeometry x="572" y="141" width="60" height="30" as="geometry"/>
                </mxCell>
                <mxCell id="8z7F6mTt5Mdfna8yfUZV-14" style="edgeStyle=orthogonalEdgeStyle;rounded=0;orthogonalLoop=1;jettySize=auto;html=1;exitX=1;exitY=0.25;exitDx=0;exitDy=0;entryX=0;entryY=0.25;entryDx=0;entryDy=0;fontFamily=Comic Sans MS;" edge="1" parent="zdI7ANHuM2Bu_Ind4vU9-1" source="8z7F6mTt5Mdfna8yfUZV-16" target="8z7F6mTt5Mdfna8yfUZV-22">
                    <mxGeometry relative="1" as="geometry"/>
                </mxCell>
                <mxCell id="8z7F6mTt5Mdfna8yfUZV-15" style="edgeStyle=orthogonalEdgeStyle;rounded=0;orthogonalLoop=1;jettySize=auto;html=1;exitX=1;exitY=0.75;exitDx=0;exitDy=0;entryX=0;entryY=0.25;entryDx=0;entryDy=0;sketch=0;jumpStyle=arc;fontFamily=Comic Sans MS;" edge="1" parent="zdI7ANHuM2Bu_Ind4vU9-1" source="8z7F6mTt5Mdfna8yfUZV-16" target="8z7F6mTt5Mdfna8yfUZV-24">
                    <mxGeometry relative="1" as="geometry">
                        <Array as="points">
                            <mxPoint x="182" y="319"/>
                            <mxPoint x="182" y="384"/>
                        </Array>
                    </mxGeometry>
                </mxCell>
                <mxCell id="8z7F6mTt5Mdfna8yfUZV-16" value="3in2out" style="rounded=0;whiteSpace=wrap;html=1;fillColor=#f0a30a;fontColor=#000000;strokeColor=#BD7000;fontFamily=Comic Sans MS;" vertex="1" parent="zdI7ANHuM2Bu_Ind4vU9-1">
                    <mxGeometry x="42" y="281" width="90" height="50" as="geometry"/>
                </mxCell>
                <mxCell id="8z7F6mTt5Mdfna8yfUZV-17" style="edgeStyle=orthogonalEdgeStyle;rounded=0;orthogonalLoop=1;jettySize=auto;html=1;exitX=1;exitY=0.25;exitDx=0;exitDy=0;entryX=0;entryY=0.75;entryDx=0;entryDy=0;jumpStyle=arc;fontFamily=Comic Sans MS;" edge="1" parent="zdI7ANHuM2Bu_Ind4vU9-1" source="8z7F6mTt5Mdfna8yfUZV-19" target="8z7F6mTt5Mdfna8yfUZV-22">
                    <mxGeometry relative="1" as="geometry">
                        <Array as="points">
                            <mxPoint x="152" y="384"/>
                            <mxPoint x="152" y="351"/>
                            <mxPoint x="212" y="351"/>
                            <mxPoint x="212" y="319"/>
                        </Array>
                    </mxGeometry>
                </mxCell>
                <mxCell id="8z7F6mTt5Mdfna8yfUZV-18" style="edgeStyle=orthogonalEdgeStyle;rounded=0;orthogonalLoop=1;jettySize=auto;html=1;exitX=1;exitY=0.75;exitDx=0;exitDy=0;entryX=0;entryY=0.75;entryDx=0;entryDy=0;fontFamily=Comic Sans MS;" edge="1" parent="zdI7ANHuM2Bu_Ind4vU9-1" source="8z7F6mTt5Mdfna8yfUZV-19" target="8z7F6mTt5Mdfna8yfUZV-24">
                    <mxGeometry relative="1" as="geometry"/>
                </mxCell>
                <mxCell id="8z7F6mTt5Mdfna8yfUZV-19" value="3in2out" style="rounded=0;whiteSpace=wrap;html=1;fillColor=#fad7ac;strokeColor=#b46504;fontFamily=Comic Sans MS;" vertex="1" parent="zdI7ANHuM2Bu_Ind4vU9-1">
                    <mxGeometry x="42" y="371" width="90" height="50" as="geometry"/>
                </mxCell>
                <mxCell id="8z7F6mTt5Mdfna8yfUZV-20" style="edgeStyle=orthogonalEdgeStyle;rounded=0;sketch=0;jumpStyle=arc;orthogonalLoop=1;jettySize=auto;html=1;exitX=1;exitY=0.25;exitDx=0;exitDy=0;entryX=0;entryY=0.25;entryDx=0;entryDy=0;fontFamily=Comic Sans MS;" edge="1" parent="zdI7ANHuM2Bu_Ind4vU9-1" source="8z7F6mTt5Mdfna8yfUZV-22" target="8z7F6mTt5Mdfna8yfUZV-30">
                    <mxGeometry relative="1" as="geometry">
                        <mxPoint x="422" y="294" as="targetPoint"/>
                    </mxGeometry>
                </mxCell>
                <mxCell id="8z7F6mTt5Mdfna8yfUZV-21" style="edgeStyle=orthogonalEdgeStyle;rounded=0;sketch=0;jumpStyle=arc;orthogonalLoop=1;jettySize=auto;html=1;exitX=1;exitY=0.75;exitDx=0;exitDy=0;entryX=0;entryY=0.25;entryDx=0;entryDy=0;fontFamily=Comic Sans MS;" edge="1" parent="zdI7ANHuM2Bu_Ind4vU9-1" source="8z7F6mTt5Mdfna8yfUZV-22" target="8z7F6mTt5Mdfna8yfUZV-26">
                    <mxGeometry relative="1" as="geometry"/>
                </mxCell>
                <mxCell id="8z7F6mTt5Mdfna8yfUZV-22" value="2in2out" style="rounded=0;whiteSpace=wrap;html=1;fontFamily=Comic Sans MS;" vertex="1" parent="zdI7ANHuM2Bu_Ind4vU9-1">
                    <mxGeometry x="282" y="281" width="90" height="50" as="geometry"/>
                </mxCell>
                <mxCell id="8z7F6mTt5Mdfna8yfUZV-23" style="edgeStyle=orthogonalEdgeStyle;rounded=0;sketch=0;jumpStyle=arc;orthogonalLoop=1;jettySize=auto;html=1;exitX=1;exitY=0.75;exitDx=0;exitDy=0;entryX=0;entryY=0.75;entryDx=0;entryDy=0;fontFamily=Comic Sans MS;" edge="1" parent="zdI7ANHuM2Bu_Ind4vU9-1" source="8z7F6mTt5Mdfna8yfUZV-24" target="8z7F6mTt5Mdfna8yfUZV-26">
                    <mxGeometry relative="1" as="geometry"/>
                </mxCell>
                <mxCell id="8z7F6mTt5Mdfna8yfUZV-24" value="2in1out" style="rounded=0;whiteSpace=wrap;html=1;fontFamily=Comic Sans MS;" vertex="1" parent="zdI7ANHuM2Bu_Ind4vU9-1">
                    <mxGeometry x="282" y="371" width="90" height="50" as="geometry"/>
                </mxCell>
                <mxCell id="8z7F6mTt5Mdfna8yfUZV-25" style="edgeStyle=orthogonalEdgeStyle;rounded=0;sketch=0;jumpStyle=arc;orthogonalLoop=1;jettySize=auto;html=1;exitX=1;exitY=0.5;exitDx=0;exitDy=0;entryX=0;entryY=0.5;entryDx=0;entryDy=0;fontFamily=Comic Sans MS;" edge="1" parent="zdI7ANHuM2Bu_Ind4vU9-1" source="8z7F6mTt5Mdfna8yfUZV-26" target="8z7F6mTt5Mdfna8yfUZV-52">
                    <mxGeometry relative="1" as="geometry">
                        <mxPoint x="632" y="395.72413793103453" as="targetPoint"/>
                    </mxGeometry>
                </mxCell>
                <mxCell id="8z7F6mTt5Mdfna8yfUZV-26" value="3in1out" style="rounded=0;whiteSpace=wrap;html=1;strokeColor=#36393d;fillColor=#ffcccc;fontFamily=Comic Sans MS;" vertex="1" parent="zdI7ANHuM2Bu_Ind4vU9-1">
                    <mxGeometry x="482" y="371" width="90" height="50" as="geometry"/>
                </mxCell>
                <mxCell id="8z7F6mTt5Mdfna8yfUZV-27" value="Submin" style="text;html=1;strokeColor=none;fillColor=none;align=center;verticalAlign=middle;whiteSpace=wrap;rounded=0;fontFamily=Comic Sans MS;" vertex="1" parent="zdI7ANHuM2Bu_Ind4vU9-1">
                    <mxGeometry x="572" y="361" width="60" height="30" as="geometry"/>
                </mxCell>
                <mxCell id="8z7F6mTt5Mdfna8yfUZV-28" style="edgeStyle=orthogonalEdgeStyle;rounded=0;sketch=0;jumpStyle=arc;orthogonalLoop=1;jettySize=auto;html=1;exitX=1;exitY=0.75;exitDx=0;exitDy=0;entryX=0;entryY=0.75;entryDx=0;entryDy=0;fontFamily=Comic Sans MS;" edge="1" parent="zdI7ANHuM2Bu_Ind4vU9-1" source="8z7F6mTt5Mdfna8yfUZV-30" target="8z7F6mTt5Mdfna8yfUZV-52">
                    <mxGeometry relative="1" as="geometry"/>
                </mxCell>
                <mxCell id="8z7F6mTt5Mdfna8yfUZV-29" style="edgeStyle=orthogonalEdgeStyle;rounded=0;sketch=0;jumpStyle=arc;orthogonalLoop=1;jettySize=auto;html=1;exitX=1;exitY=0.25;exitDx=0;exitDy=0;entryX=0;entryY=0.75;entryDx=0;entryDy=0;fontFamily=Comic Sans MS;" edge="1" parent="zdI7ANHuM2Bu_Ind4vU9-1" source="8z7F6mTt5Mdfna8yfUZV-30" target="8z7F6mTt5Mdfna8yfUZV-108">
                    <mxGeometry relative="1" as="geometry">
                        <Array as="points">
                            <mxPoint x="682" y="294"/>
                            <mxPoint x="682" y="789"/>
                            <mxPoint x="690" y="789"/>
                        </Array>
                    </mxGeometry>
                </mxCell>
                <mxCell id="8z7F6mTt5Mdfna8yfUZV-140" style="edgeStyle=none;rounded=0;jumpStyle=arc;orthogonalLoop=1;jettySize=auto;html=1;exitX=1;exitY=0.25;exitDx=0;exitDy=0;entryX=0.868;entryY=0.675;entryDx=0;entryDy=0;entryPerimeter=0;startArrow=none;startFill=0;endArrow=classic;endFill=1;fontFamily=Comic Sans MS;" edge="1" parent="zdI7ANHuM2Bu_Ind4vU9-1" source="8z7F6mTt5Mdfna8yfUZV-30" target="8z7F6mTt5Mdfna8yfUZV-136">
                    <mxGeometry relative="1" as="geometry"/>
                </mxCell>
                <mxCell id="X1xiSLFqcvYb4-pfKMKE-8" style="edgeStyle=orthogonalEdgeStyle;rounded=0;jumpStyle=arc;orthogonalLoop=1;jettySize=auto;html=1;exitX=1;exitY=0.25;exitDx=0;exitDy=0;entryX=0;entryY=0.25;entryDx=0;entryDy=0;startArrow=none;startFill=0;endArrow=classic;endFill=1;strokeColor=#000000;strokeWidth=1;fontFamily=Comic Sans MS;dashed=1;" edge="1" parent="zdI7ANHuM2Bu_Ind4vU9-1" source="8z7F6mTt5Mdfna8yfUZV-30" target="X1xiSLFqcvYb4-pfKMKE-4">
                    <mxGeometry relative="1" as="geometry">
                        <Array as="points">
                            <mxPoint x="620" y="294"/>
                            <mxPoint x="620" y="474"/>
                        </Array>
                    </mxGeometry>
                </mxCell>
                <mxCell id="8z7F6mTt5Mdfna8yfUZV-30" value="3in2out" style="rounded=0;whiteSpace=wrap;html=1;fillColor=#ffcc99;strokeColor=#36393d;fontFamily=Comic Sans MS;" vertex="1" parent="zdI7ANHuM2Bu_Ind4vU9-1">
                    <mxGeometry x="482" y="281" width="90" height="50" as="geometry"/>
                </mxCell>
                <mxCell id="8z7F6mTt5Mdfna8yfUZV-31" value="3in2out" style="rounded=0;whiteSpace=wrap;html=1;fillColor=#f0a30a;fontColor=#000000;strokeColor=#BD7000;fontFamily=Comic Sans MS;" vertex="1" parent="zdI7ANHuM2Bu_Ind4vU9-1">
                    <mxGeometry x="42" y="61" width="90" height="50" as="geometry"/>
                </mxCell>
                <mxCell id="8z7F6mTt5Mdfna8yfUZV-32" value="3in2out" style="rounded=0;whiteSpace=wrap;html=1;fillColor=#f0a30a;fontColor=#000000;strokeColor=#BD7000;fontFamily=Comic Sans MS;" vertex="1" parent="zdI7ANHuM2Bu_Ind4vU9-1">
                    <mxGeometry x="42" y="151" width="90" height="50" as="geometry"/>
                </mxCell>
                <mxCell id="8z7F6mTt5Mdfna8yfUZV-33" value="3in2out" style="rounded=0;whiteSpace=wrap;html=1;fillColor=#f0a30a;fontColor=#000000;strokeColor=#BD7000;fontFamily=Comic Sans MS;" vertex="1" parent="zdI7ANHuM2Bu_Ind4vU9-1">
                    <mxGeometry x="42" y="61" width="90" height="50" as="geometry"/>
                </mxCell>
                <mxCell id="8z7F6mTt5Mdfna8yfUZV-34" value="3in2out" style="rounded=0;whiteSpace=wrap;html=1;fillColor=#f0a30a;fontColor=#000000;strokeColor=#BD7000;fontFamily=Comic Sans MS;" vertex="1" parent="zdI7ANHuM2Bu_Ind4vU9-1">
                    <mxGeometry x="42" y="151" width="90" height="50" as="geometry"/>
                </mxCell>
                <mxCell id="8z7F6mTt5Mdfna8yfUZV-35" value="3in2out" style="rounded=0;whiteSpace=wrap;html=1;fillColor=#f0a30a;fontColor=#000000;strokeColor=#BD7000;fontFamily=Comic Sans MS;" vertex="1" parent="zdI7ANHuM2Bu_Ind4vU9-1">
                    <mxGeometry x="42" y="281" width="90" height="50" as="geometry"/>
                </mxCell>
                <mxCell id="8z7F6mTt5Mdfna8yfUZV-36" value="3in2out" style="rounded=0;whiteSpace=wrap;html=1;fillColor=#f0a30a;fontColor=#000000;strokeColor=#BD7000;fontFamily=Comic Sans MS;" vertex="1" parent="zdI7ANHuM2Bu_Ind4vU9-1">
                    <mxGeometry x="42" y="61" width="90" height="50" as="geometry"/>
                </mxCell>
                <mxCell id="8z7F6mTt5Mdfna8yfUZV-37" value="3in2out" style="rounded=0;whiteSpace=wrap;html=1;fillColor=#f0a30a;fontColor=#000000;strokeColor=#BD7000;fontFamily=Comic Sans MS;" vertex="1" parent="zdI7ANHuM2Bu_Ind4vU9-1">
                    <mxGeometry x="42" y="151" width="90" height="50" as="geometry"/>
                </mxCell>
                <mxCell id="8z7F6mTt5Mdfna8yfUZV-38" value="3in2out" style="rounded=0;whiteSpace=wrap;html=1;fillColor=#f0a30a;fontColor=#000000;strokeColor=#BD7000;fontFamily=Comic Sans MS;" vertex="1" parent="zdI7ANHuM2Bu_Ind4vU9-1">
                    <mxGeometry x="42" y="281" width="90" height="50" as="geometry"/>
                </mxCell>
                <mxCell id="8z7F6mTt5Mdfna8yfUZV-39" value="2in2out" style="rounded=0;whiteSpace=wrap;html=1;fontFamily=Comic Sans MS;" vertex="1" parent="zdI7ANHuM2Bu_Ind4vU9-1">
                    <mxGeometry x="282" y="61" width="90" height="50" as="geometry"/>
                </mxCell>
                <mxCell id="8z7F6mTt5Mdfna8yfUZV-40" value="2in1out" style="rounded=0;whiteSpace=wrap;html=1;fontFamily=Comic Sans MS;" vertex="1" parent="zdI7ANHuM2Bu_Ind4vU9-1">
                    <mxGeometry x="282" y="151" width="90" height="50" as="geometry"/>
                </mxCell>
                <mxCell id="8z7F6mTt5Mdfna8yfUZV-41" value="2in2out" style="rounded=0;whiteSpace=wrap;html=1;fontFamily=Comic Sans MS;" vertex="1" parent="zdI7ANHuM2Bu_Ind4vU9-1">
                    <mxGeometry x="282" y="281" width="90" height="50" as="geometry"/>
                </mxCell>
                <mxCell id="8z7F6mTt5Mdfna8yfUZV-42" value="2in1out" style="rounded=0;whiteSpace=wrap;html=1;fontFamily=Comic Sans MS;" vertex="1" parent="zdI7ANHuM2Bu_Ind4vU9-1">
                    <mxGeometry x="282" y="371" width="90" height="50" as="geometry"/>
                </mxCell>
                <mxCell id="8z7F6mTt5Mdfna8yfUZV-43" value="3in2out" style="rounded=0;whiteSpace=wrap;html=1;fillColor=#fad7ac;strokeColor=#b46504;fontFamily=Comic Sans MS;" vertex="1" parent="zdI7ANHuM2Bu_Ind4vU9-1">
                    <mxGeometry x="42" y="61" width="90" height="50" as="geometry"/>
                </mxCell>
                <mxCell id="8z7F6mTt5Mdfna8yfUZV-44" value="3in2out" style="rounded=0;whiteSpace=wrap;html=1;fillColor=#fad7ac;strokeColor=#b46504;fontFamily=Comic Sans MS;" vertex="1" parent="zdI7ANHuM2Bu_Ind4vU9-1">
                    <mxGeometry x="42" y="151" width="90" height="50" as="geometry"/>
                </mxCell>
                <mxCell id="8z7F6mTt5Mdfna8yfUZV-122" style="edgeStyle=orthogonalEdgeStyle;rounded=0;jumpStyle=arc;orthogonalLoop=1;jettySize=auto;html=1;exitX=0;exitY=0.25;exitDx=0;exitDy=0;fontFamily=Comic Sans MS;startArrow=classic;startFill=1;endArrow=none;endFill=0;" edge="1" parent="zdI7ANHuM2Bu_Ind4vU9-1" source="8z7F6mTt5Mdfna8yfUZV-45">
                    <mxGeometry relative="1" as="geometry">
                        <mxPoint x="-20" y="240" as="targetPoint"/>
                    </mxGeometry>
                </mxCell>
                <mxCell id="8z7F6mTt5Mdfna8yfUZV-45" value="3in2out" style="rounded=0;whiteSpace=wrap;html=1;fillColor=#fad7ac;strokeColor=#b46504;fontFamily=Comic Sans MS;" vertex="1" parent="zdI7ANHuM2Bu_Ind4vU9-1">
                    <mxGeometry x="42" y="281" width="90" height="50" as="geometry"/>
                </mxCell>
                <mxCell id="8z7F6mTt5Mdfna8yfUZV-46" style="edgeStyle=orthogonalEdgeStyle;rounded=0;sketch=0;jumpStyle=arc;orthogonalLoop=1;jettySize=auto;html=1;exitX=1;exitY=0.25;exitDx=0;exitDy=0;entryX=0;entryY=0.75;entryDx=0;entryDy=0;fontFamily=Comic Sans MS;" edge="1" parent="zdI7ANHuM2Bu_Ind4vU9-1" source="8z7F6mTt5Mdfna8yfUZV-47" target="8z7F6mTt5Mdfna8yfUZV-30">
                    <mxGeometry relative="1" as="geometry">
                        <mxPoint x="462" y="291" as="targetPoint"/>
                        <Array as="points">
                            <mxPoint x="430" y="74"/>
                            <mxPoint x="442" y="74"/>
                            <mxPoint x="442" y="319"/>
                        </Array>
                    </mxGeometry>
                </mxCell>
                <mxCell id="8z7F6mTt5Mdfna8yfUZV-139" style="rounded=0;jumpStyle=arc;orthogonalLoop=1;jettySize=auto;html=1;exitX=1;exitY=0.25;exitDx=0;exitDy=0;startArrow=none;startFill=0;endArrow=classic;endFill=1;fontFamily=Comic Sans MS;entryX=0.724;entryY=0.181;entryDx=0;entryDy=0;entryPerimeter=0;" edge="1" parent="zdI7ANHuM2Bu_Ind4vU9-1" source="8z7F6mTt5Mdfna8yfUZV-47" target="8z7F6mTt5Mdfna8yfUZV-133">
                    <mxGeometry relative="1" as="geometry">
                        <mxPoint x="520" y="-80" as="targetPoint"/>
                    </mxGeometry>
                </mxCell>
                <mxCell id="8z7F6mTt5Mdfna8yfUZV-47" value="3in2out" style="rounded=0;whiteSpace=wrap;html=1;strokeColor=#b46504;fontFamily=Comic Sans MS;fillColor=#fad7ac;" vertex="1" parent="zdI7ANHuM2Bu_Ind4vU9-1">
                    <mxGeometry x="282" y="61" width="90" height="50" as="geometry"/>
                </mxCell>
                <mxCell id="8z7F6mTt5Mdfna8yfUZV-48" value="2in1out" style="rounded=0;whiteSpace=wrap;html=1;strokeColor=#56517e;fillColor=#d0cee2;fontFamily=Comic Sans MS;" vertex="1" parent="zdI7ANHuM2Bu_Ind4vU9-1">
                    <mxGeometry x="282" y="151" width="90" height="50" as="geometry"/>
                </mxCell>
                <mxCell id="8z7F6mTt5Mdfna8yfUZV-49" value="2in2out" style="rounded=0;whiteSpace=wrap;html=1;strokeColor=#10739e;fillColor=#b1ddf0;fontFamily=Comic Sans MS;" vertex="1" parent="zdI7ANHuM2Bu_Ind4vU9-1">
                    <mxGeometry x="282" y="281" width="90" height="50" as="geometry"/>
                </mxCell>
                <mxCell id="8z7F6mTt5Mdfna8yfUZV-50" value="2in1out" style="rounded=0;whiteSpace=wrap;html=1;strokeColor=#56517E;fillColor=#d0cee2;fontFamily=Comic Sans MS;" vertex="1" parent="zdI7ANHuM2Bu_Ind4vU9-1">
                    <mxGeometry x="282" y="371" width="90" height="50" as="geometry"/>
                </mxCell>
                <mxCell id="8z7F6mTt5Mdfna8yfUZV-51" style="edgeStyle=orthogonalEdgeStyle;rounded=0;sketch=0;jumpStyle=arc;orthogonalLoop=1;jettySize=auto;html=1;exitX=1;exitY=0.5;exitDx=0;exitDy=0;entryX=0;entryY=0.25;entryDx=0;entryDy=0;fontFamily=Comic Sans MS;" edge="1" parent="zdI7ANHuM2Bu_Ind4vU9-1" source="8z7F6mTt5Mdfna8yfUZV-52" target="8z7F6mTt5Mdfna8yfUZV-110">
                    <mxGeometry relative="1" as="geometry">
                        <mxPoint x="882" y="395.72413793103453" as="targetPoint"/>
                    </mxGeometry>
                </mxCell>
                <mxCell id="8z7F6mTt5Mdfna8yfUZV-52" value="3in1out" style="rounded=0;whiteSpace=wrap;html=1;strokeColor=#ae4132;fillColor=#fad9d5;fontFamily=Comic Sans MS;" vertex="1" parent="zdI7ANHuM2Bu_Ind4vU9-1">
                    <mxGeometry x="712" y="371" width="90" height="50" as="geometry"/>
                </mxCell>
                <mxCell id="8z7F6mTt5Mdfna8yfUZV-53" style="edgeStyle=orthogonalEdgeStyle;rounded=0;orthogonalLoop=1;jettySize=auto;html=1;exitX=1;exitY=0.25;exitDx=0;exitDy=0;entryX=0;entryY=0.25;entryDx=0;entryDy=0;fontFamily=Comic Sans MS;" edge="1" parent="zdI7ANHuM2Bu_Ind4vU9-1" source="8z7F6mTt5Mdfna8yfUZV-55" target="8z7F6mTt5Mdfna8yfUZV-60">
                    <mxGeometry relative="1" as="geometry"/>
                </mxCell>
                <mxCell id="8z7F6mTt5Mdfna8yfUZV-54" style="edgeStyle=orthogonalEdgeStyle;rounded=0;orthogonalLoop=1;jettySize=auto;html=1;exitX=1;exitY=0.75;exitDx=0;exitDy=0;entryX=0;entryY=0.25;entryDx=0;entryDy=0;sketch=0;jumpStyle=arc;fontFamily=Comic Sans MS;" edge="1" parent="zdI7ANHuM2Bu_Ind4vU9-1" source="8z7F6mTt5Mdfna8yfUZV-55" target="8z7F6mTt5Mdfna8yfUZV-62">
                    <mxGeometry relative="1" as="geometry">
                        <Array as="points">
                            <mxPoint x="182" y="498"/>
                            <mxPoint x="182" y="564"/>
                            <mxPoint x="250" y="564"/>
                            <mxPoint x="250" y="654"/>
                        </Array>
                    </mxGeometry>
                </mxCell>
                <mxCell id="8z7F6mTt5Mdfna8yfUZV-55" value="3in2out" style="rounded=0;whiteSpace=wrap;html=1;fontFamily=Comic Sans MS;" vertex="1" parent="zdI7ANHuM2Bu_Ind4vU9-1">
                    <mxGeometry x="42" y="461" width="90" height="50" as="geometry"/>
                </mxCell>
                <mxCell id="8z7F6mTt5Mdfna8yfUZV-56" style="edgeStyle=orthogonalEdgeStyle;rounded=0;orthogonalLoop=1;jettySize=auto;html=1;exitX=1;exitY=0.25;exitDx=0;exitDy=0;entryX=0;entryY=0.75;entryDx=0;entryDy=0;jumpStyle=arc;fontFamily=Comic Sans MS;" edge="1" parent="zdI7ANHuM2Bu_Ind4vU9-1" source="8z7F6mTt5Mdfna8yfUZV-58" target="8z7F6mTt5Mdfna8yfUZV-60">
                    <mxGeometry relative="1" as="geometry">
                        <Array as="points">
                            <mxPoint x="230" y="654"/>
                            <mxPoint x="230" y="499"/>
                        </Array>
                    </mxGeometry>
                </mxCell>
                <mxCell id="8z7F6mTt5Mdfna8yfUZV-57" style="edgeStyle=orthogonalEdgeStyle;rounded=0;orthogonalLoop=1;jettySize=auto;html=1;exitX=1;exitY=0.75;exitDx=0;exitDy=0;entryX=0;entryY=0.75;entryDx=0;entryDy=0;fontFamily=Comic Sans MS;" edge="1" parent="zdI7ANHuM2Bu_Ind4vU9-1" source="8z7F6mTt5Mdfna8yfUZV-58" target="8z7F6mTt5Mdfna8yfUZV-62">
                    <mxGeometry relative="1" as="geometry"/>
                </mxCell>
                <mxCell id="8z7F6mTt5Mdfna8yfUZV-58" value="3in2out" style="rounded=0;whiteSpace=wrap;html=1;fontFamily=Comic Sans MS;" vertex="1" parent="zdI7ANHuM2Bu_Ind4vU9-1">
                    <mxGeometry x="42" y="641" width="90" height="50" as="geometry"/>
                </mxCell>
                <mxCell id="8z7F6mTt5Mdfna8yfUZV-59" style="edgeStyle=orthogonalEdgeStyle;rounded=0;sketch=0;jumpStyle=arc;orthogonalLoop=1;jettySize=auto;html=1;exitX=1;exitY=0.75;exitDx=0;exitDy=0;entryX=0;entryY=0.25;entryDx=0;entryDy=0;fontFamily=Comic Sans MS;" edge="1" parent="zdI7ANHuM2Bu_Ind4vU9-1" source="8z7F6mTt5Mdfna8yfUZV-60" target="8z7F6mTt5Mdfna8yfUZV-64">
                    <mxGeometry relative="1" as="geometry"/>
                </mxCell>
                <mxCell id="8z7F6mTt5Mdfna8yfUZV-60" value="2in2out" style="rounded=0;whiteSpace=wrap;html=1;fontFamily=Comic Sans MS;" vertex="1" parent="zdI7ANHuM2Bu_Ind4vU9-1">
                    <mxGeometry x="282" y="461" width="90" height="50" as="geometry"/>
                </mxCell>
                <mxCell id="8z7F6mTt5Mdfna8yfUZV-61" style="edgeStyle=orthogonalEdgeStyle;rounded=0;sketch=0;jumpStyle=arc;orthogonalLoop=1;jettySize=auto;html=1;exitX=1;exitY=0.75;exitDx=0;exitDy=0;entryX=0;entryY=0.75;entryDx=0;entryDy=0;fontFamily=Comic Sans MS;" edge="1" parent="zdI7ANHuM2Bu_Ind4vU9-1" source="8z7F6mTt5Mdfna8yfUZV-62" target="8z7F6mTt5Mdfna8yfUZV-64">
                    <mxGeometry relative="1" as="geometry"/>
                </mxCell>
                <mxCell id="8z7F6mTt5Mdfna8yfUZV-62" value="2in1out" style="rounded=0;whiteSpace=wrap;html=1;fontFamily=Comic Sans MS;" vertex="1" parent="zdI7ANHuM2Bu_Ind4vU9-1">
                    <mxGeometry x="282" y="641" width="90" height="50" as="geometry"/>
                </mxCell>
                <mxCell id="8z7F6mTt5Mdfna8yfUZV-63" style="edgeStyle=orthogonalEdgeStyle;rounded=0;sketch=0;jumpStyle=arc;orthogonalLoop=1;jettySize=auto;html=1;exitX=1;exitY=0.5;exitDx=0;exitDy=0;entryX=0;entryY=0.25;entryDx=0;entryDy=0;fontFamily=Comic Sans MS;" edge="1" parent="zdI7ANHuM2Bu_Ind4vU9-1" source="8z7F6mTt5Mdfna8yfUZV-64" target="8z7F6mTt5Mdfna8yfUZV-105">
                    <mxGeometry relative="1" as="geometry">
                        <Array as="points">
                            <mxPoint x="662" y="666"/>
                            <mxPoint x="662" y="854"/>
                        </Array>
                    </mxGeometry>
                </mxCell>
                <mxCell id="8z7F6mTt5Mdfna8yfUZV-64" value="2in1out" style="rounded=0;whiteSpace=wrap;html=1;fillColor=#d0cee2;strokeColor=#56517E;fontFamily=Comic Sans MS;" vertex="1" parent="zdI7ANHuM2Bu_Ind4vU9-1">
                    <mxGeometry x="482" y="641" width="90" height="50" as="geometry"/>
                </mxCell>
                <mxCell id="8z7F6mTt5Mdfna8yfUZV-65" value="Submin" style="text;html=1;strokeColor=none;fillColor=none;align=center;verticalAlign=middle;whiteSpace=wrap;rounded=0;fontFamily=Comic Sans MS;" vertex="1" parent="zdI7ANHuM2Bu_Ind4vU9-1">
                    <mxGeometry x="572" y="631" width="60" height="30" as="geometry"/>
                </mxCell>
                <mxCell id="8z7F6mTt5Mdfna8yfUZV-66" style="edgeStyle=orthogonalEdgeStyle;rounded=0;orthogonalLoop=1;jettySize=auto;html=1;exitX=1;exitY=0.25;exitDx=0;exitDy=0;entryX=0;entryY=0.25;entryDx=0;entryDy=0;fontFamily=Comic Sans MS;" edge="1" parent="zdI7ANHuM2Bu_Ind4vU9-1" source="8z7F6mTt5Mdfna8yfUZV-68" target="8z7F6mTt5Mdfna8yfUZV-74">
                    <mxGeometry relative="1" as="geometry"/>
                </mxCell>
                <mxCell id="8z7F6mTt5Mdfna8yfUZV-67" style="edgeStyle=orthogonalEdgeStyle;rounded=0;orthogonalLoop=1;jettySize=auto;html=1;exitX=1;exitY=0.75;exitDx=0;exitDy=0;entryX=0;entryY=0.25;entryDx=0;entryDy=0;sketch=0;jumpStyle=arc;fontFamily=Comic Sans MS;" edge="1" parent="zdI7ANHuM2Bu_Ind4vU9-1" source="8z7F6mTt5Mdfna8yfUZV-68" target="8z7F6mTt5Mdfna8yfUZV-76">
                    <mxGeometry relative="1" as="geometry">
                        <Array as="points">
                            <mxPoint x="182" y="789"/>
                            <mxPoint x="182" y="854"/>
                        </Array>
                    </mxGeometry>
                </mxCell>
                <mxCell id="8z7F6mTt5Mdfna8yfUZV-68" value="3in2out" style="rounded=0;whiteSpace=wrap;html=1;fillColor=#f0a30a;fontColor=#000000;strokeColor=#BD7000;fontFamily=Comic Sans MS;" vertex="1" parent="zdI7ANHuM2Bu_Ind4vU9-1">
                    <mxGeometry x="42" y="751" width="90" height="50" as="geometry"/>
                </mxCell>
                <mxCell id="8z7F6mTt5Mdfna8yfUZV-69" style="edgeStyle=orthogonalEdgeStyle;rounded=0;orthogonalLoop=1;jettySize=auto;html=1;exitX=1;exitY=0.25;exitDx=0;exitDy=0;entryX=0;entryY=0.75;entryDx=0;entryDy=0;jumpStyle=arc;fontFamily=Comic Sans MS;" edge="1" parent="zdI7ANHuM2Bu_Ind4vU9-1" source="8z7F6mTt5Mdfna8yfUZV-71" target="8z7F6mTt5Mdfna8yfUZV-74">
                    <mxGeometry relative="1" as="geometry">
                        <Array as="points">
                            <mxPoint x="152" y="854"/>
                            <mxPoint x="152" y="821"/>
                            <mxPoint x="212" y="821"/>
                            <mxPoint x="212" y="789"/>
                        </Array>
                    </mxGeometry>
                </mxCell>
                <mxCell id="8z7F6mTt5Mdfna8yfUZV-70" style="edgeStyle=orthogonalEdgeStyle;rounded=0;orthogonalLoop=1;jettySize=auto;html=1;exitX=1;exitY=0.75;exitDx=0;exitDy=0;entryX=0;entryY=0.75;entryDx=0;entryDy=0;fontFamily=Comic Sans MS;" edge="1" parent="zdI7ANHuM2Bu_Ind4vU9-1" source="8z7F6mTt5Mdfna8yfUZV-71" target="8z7F6mTt5Mdfna8yfUZV-76">
                    <mxGeometry relative="1" as="geometry"/>
                </mxCell>
                <mxCell id="8z7F6mTt5Mdfna8yfUZV-71" value="3in2out" style="rounded=0;whiteSpace=wrap;html=1;fillColor=#fad7ac;strokeColor=#b46504;fontFamily=Comic Sans MS;" vertex="1" parent="zdI7ANHuM2Bu_Ind4vU9-1">
                    <mxGeometry x="42" y="841" width="90" height="50" as="geometry"/>
                </mxCell>
                <mxCell id="8z7F6mTt5Mdfna8yfUZV-72" style="edgeStyle=orthogonalEdgeStyle;rounded=0;sketch=0;jumpStyle=arc;orthogonalLoop=1;jettySize=auto;html=1;exitX=1;exitY=0.25;exitDx=0;exitDy=0;entryX=0;entryY=0.25;entryDx=0;entryDy=0;fontFamily=Comic Sans MS;" edge="1" parent="zdI7ANHuM2Bu_Ind4vU9-1" source="8z7F6mTt5Mdfna8yfUZV-74" target="8z7F6mTt5Mdfna8yfUZV-83">
                    <mxGeometry relative="1" as="geometry">
                        <mxPoint x="422" y="764" as="targetPoint"/>
                    </mxGeometry>
                </mxCell>
                <mxCell id="8z7F6mTt5Mdfna8yfUZV-73" style="edgeStyle=orthogonalEdgeStyle;rounded=0;sketch=0;jumpStyle=arc;orthogonalLoop=1;jettySize=auto;html=1;exitX=1;exitY=0.75;exitDx=0;exitDy=0;entryX=0;entryY=0.25;entryDx=0;entryDy=0;fontFamily=Comic Sans MS;" edge="1" parent="zdI7ANHuM2Bu_Ind4vU9-1" source="8z7F6mTt5Mdfna8yfUZV-74" target="8z7F6mTt5Mdfna8yfUZV-78">
                    <mxGeometry relative="1" as="geometry"/>
                </mxCell>
                <mxCell id="8z7F6mTt5Mdfna8yfUZV-74" value="2in2out" style="rounded=0;whiteSpace=wrap;html=1;fontFamily=Comic Sans MS;" vertex="1" parent="zdI7ANHuM2Bu_Ind4vU9-1">
                    <mxGeometry x="282" y="751" width="90" height="50" as="geometry"/>
                </mxCell>
                <mxCell id="8z7F6mTt5Mdfna8yfUZV-75" style="edgeStyle=orthogonalEdgeStyle;rounded=0;sketch=0;jumpStyle=arc;orthogonalLoop=1;jettySize=auto;html=1;exitX=1;exitY=0.75;exitDx=0;exitDy=0;entryX=0;entryY=0.75;entryDx=0;entryDy=0;fontFamily=Comic Sans MS;" edge="1" parent="zdI7ANHuM2Bu_Ind4vU9-1" source="8z7F6mTt5Mdfna8yfUZV-76" target="8z7F6mTt5Mdfna8yfUZV-78">
                    <mxGeometry relative="1" as="geometry"/>
                </mxCell>
                <mxCell id="8z7F6mTt5Mdfna8yfUZV-76" value="2in1out" style="rounded=0;whiteSpace=wrap;html=1;fontFamily=Comic Sans MS;" vertex="1" parent="zdI7ANHuM2Bu_Ind4vU9-1">
                    <mxGeometry x="282" y="841" width="90" height="50" as="geometry"/>
                </mxCell>
                <mxCell id="8z7F6mTt5Mdfna8yfUZV-77" style="edgeStyle=orthogonalEdgeStyle;rounded=0;sketch=0;jumpStyle=arc;orthogonalLoop=1;jettySize=auto;html=1;exitX=1;exitY=0.5;exitDx=0;exitDy=0;entryX=0;entryY=0.5;entryDx=0;entryDy=0;fontFamily=Comic Sans MS;" edge="1" parent="zdI7ANHuM2Bu_Ind4vU9-1" source="8z7F6mTt5Mdfna8yfUZV-78" target="8z7F6mTt5Mdfna8yfUZV-105">
                    <mxGeometry relative="1" as="geometry">
                        <mxPoint x="632" y="865.7241379310345" as="targetPoint"/>
                    </mxGeometry>
                </mxCell>
                <mxCell id="8z7F6mTt5Mdfna8yfUZV-78" value="2in1out" style="rounded=0;whiteSpace=wrap;html=1;strokeColor=#56517E;fillColor=#d0cee2;fontFamily=Comic Sans MS;" vertex="1" parent="zdI7ANHuM2Bu_Ind4vU9-1">
                    <mxGeometry x="482" y="841" width="90" height="50" as="geometry"/>
                </mxCell>
                <mxCell id="8z7F6mTt5Mdfna8yfUZV-79" value="Min" style="text;html=1;strokeColor=none;fillColor=none;align=center;verticalAlign=middle;whiteSpace=wrap;rounded=0;fontFamily=Comic Sans MS;" vertex="1" parent="zdI7ANHuM2Bu_Ind4vU9-1">
                    <mxGeometry x="1062" y="731" width="60" height="30" as="geometry"/>
                </mxCell>
                <mxCell id="8z7F6mTt5Mdfna8yfUZV-80" value="Submin" style="text;html=1;strokeColor=none;fillColor=none;align=center;verticalAlign=middle;whiteSpace=wrap;rounded=0;fontFamily=Comic Sans MS;" vertex="1" parent="zdI7ANHuM2Bu_Ind4vU9-1">
                    <mxGeometry x="572" y="831" width="60" height="30" as="geometry"/>
                </mxCell>
                <mxCell id="8z7F6mTt5Mdfna8yfUZV-81" style="edgeStyle=orthogonalEdgeStyle;rounded=0;sketch=0;jumpStyle=arc;orthogonalLoop=1;jettySize=auto;html=1;exitX=1;exitY=0.75;exitDx=0;exitDy=0;entryX=0;entryY=0.75;entryDx=0;entryDy=0;fontFamily=Comic Sans MS;" edge="1" parent="zdI7ANHuM2Bu_Ind4vU9-1" source="8z7F6mTt5Mdfna8yfUZV-83" target="8z7F6mTt5Mdfna8yfUZV-105">
                    <mxGeometry relative="1" as="geometry"/>
                </mxCell>
                <mxCell id="8z7F6mTt5Mdfna8yfUZV-82" style="edgeStyle=orthogonalEdgeStyle;rounded=0;sketch=0;jumpStyle=arc;orthogonalLoop=1;jettySize=auto;html=1;exitX=1;exitY=0.25;exitDx=0;exitDy=0;entryX=0;entryY=0.25;entryDx=0;entryDy=0;fontFamily=Comic Sans MS;" edge="1" parent="zdI7ANHuM2Bu_Ind4vU9-1" source="8z7F6mTt5Mdfna8yfUZV-83" target="8z7F6mTt5Mdfna8yfUZV-108">
                    <mxGeometry relative="1" as="geometry"/>
                </mxCell>
                <mxCell id="8z7F6mTt5Mdfna8yfUZV-83" value="2in2out" style="rounded=0;whiteSpace=wrap;html=1;fillColor=#b1ddf0;strokeColor=#10739e;fontFamily=Comic Sans MS;" vertex="1" parent="zdI7ANHuM2Bu_Ind4vU9-1">
                    <mxGeometry x="482" y="751" width="90" height="50" as="geometry"/>
                </mxCell>
                <mxCell id="8z7F6mTt5Mdfna8yfUZV-84" value="3in2out" style="rounded=0;whiteSpace=wrap;html=1;fillColor=#f0a30a;fontColor=#000000;strokeColor=#BD7000;fontFamily=Comic Sans MS;" vertex="1" parent="zdI7ANHuM2Bu_Ind4vU9-1">
                    <mxGeometry x="42" y="461" width="90" height="50" as="geometry"/>
                </mxCell>
                <mxCell id="8z7F6mTt5Mdfna8yfUZV-85" value="3in2out" style="rounded=0;whiteSpace=wrap;html=1;fillColor=#f0a30a;fontColor=#000000;strokeColor=#BD7000;fontFamily=Comic Sans MS;" vertex="1" parent="zdI7ANHuM2Bu_Ind4vU9-1">
                    <mxGeometry x="42" y="641" width="90" height="50" as="geometry"/>
                </mxCell>
                <mxCell id="8z7F6mTt5Mdfna8yfUZV-86" value="3in2out" style="rounded=0;whiteSpace=wrap;html=1;fillColor=#f0a30a;fontColor=#000000;strokeColor=#BD7000;fontFamily=Comic Sans MS;" vertex="1" parent="zdI7ANHuM2Bu_Ind4vU9-1">
                    <mxGeometry x="42" y="461" width="90" height="50" as="geometry"/>
                </mxCell>
                <mxCell id="8z7F6mTt5Mdfna8yfUZV-87" value="3in2out" style="rounded=0;whiteSpace=wrap;html=1;fillColor=#f0a30a;fontColor=#000000;strokeColor=#BD7000;fontFamily=Comic Sans MS;" vertex="1" parent="zdI7ANHuM2Bu_Ind4vU9-1">
                    <mxGeometry x="42" y="641" width="90" height="50" as="geometry"/>
                </mxCell>
                <mxCell id="8z7F6mTt5Mdfna8yfUZV-88" value="3in2out" style="rounded=0;whiteSpace=wrap;html=1;fillColor=#f0a30a;fontColor=#000000;strokeColor=#BD7000;fontFamily=Comic Sans MS;" vertex="1" parent="zdI7ANHuM2Bu_Ind4vU9-1">
                    <mxGeometry x="42" y="751" width="90" height="50" as="geometry"/>
                </mxCell>
                <mxCell id="8z7F6mTt5Mdfna8yfUZV-89" value="3in2out" style="rounded=0;whiteSpace=wrap;html=1;fillColor=#f0a30a;fontColor=#000000;strokeColor=#BD7000;fontFamily=Comic Sans MS;" vertex="1" parent="zdI7ANHuM2Bu_Ind4vU9-1">
                    <mxGeometry x="42" y="461" width="90" height="50" as="geometry"/>
                </mxCell>
                <mxCell id="8z7F6mTt5Mdfna8yfUZV-90" value="3in2out" style="rounded=0;whiteSpace=wrap;html=1;fillColor=#f0a30a;fontColor=#000000;strokeColor=#BD7000;fontFamily=Comic Sans MS;" vertex="1" parent="zdI7ANHuM2Bu_Ind4vU9-1">
                    <mxGeometry x="42" y="641" width="90" height="50" as="geometry"/>
                </mxCell>
                <mxCell id="8z7F6mTt5Mdfna8yfUZV-91" value="3in2out" style="rounded=0;whiteSpace=wrap;html=1;fillColor=#f0a30a;fontColor=#000000;strokeColor=#BD7000;fontFamily=Comic Sans MS;" vertex="1" parent="zdI7ANHuM2Bu_Ind4vU9-1">
                    <mxGeometry x="42" y="751" width="90" height="50" as="geometry"/>
                </mxCell>
                <mxCell id="8z7F6mTt5Mdfna8yfUZV-92" value="2in2out" style="rounded=0;whiteSpace=wrap;html=1;fontFamily=Comic Sans MS;" vertex="1" parent="zdI7ANHuM2Bu_Ind4vU9-1">
                    <mxGeometry x="282" y="461" width="90" height="50" as="geometry"/>
                </mxCell>
                <mxCell id="8z7F6mTt5Mdfna8yfUZV-93" value="2in1out" style="rounded=0;whiteSpace=wrap;html=1;fontFamily=Comic Sans MS;" vertex="1" parent="zdI7ANHuM2Bu_Ind4vU9-1">
                    <mxGeometry x="282" y="641" width="90" height="50" as="geometry"/>
                </mxCell>
                <mxCell id="8z7F6mTt5Mdfna8yfUZV-94" value="2in2out" style="rounded=0;whiteSpace=wrap;html=1;fontFamily=Comic Sans MS;" vertex="1" parent="zdI7ANHuM2Bu_Ind4vU9-1">
                    <mxGeometry x="282" y="751" width="90" height="50" as="geometry"/>
                </mxCell>
                <mxCell id="8z7F6mTt5Mdfna8yfUZV-95" value="2in1out" style="rounded=0;whiteSpace=wrap;html=1;fontFamily=Comic Sans MS;" vertex="1" parent="zdI7ANHuM2Bu_Ind4vU9-1">
                    <mxGeometry x="282" y="841" width="90" height="50" as="geometry"/>
                </mxCell>
                <mxCell id="8z7F6mTt5Mdfna8yfUZV-96" value="3in2out" style="rounded=0;whiteSpace=wrap;html=1;fillColor=#fad7ac;strokeColor=#b46504;fontFamily=Comic Sans MS;" vertex="1" parent="zdI7ANHuM2Bu_Ind4vU9-1">
                    <mxGeometry x="42" y="461" width="90" height="50" as="geometry"/>
                </mxCell>
                <mxCell id="8z7F6mTt5Mdfna8yfUZV-97" value="3in2out" style="rounded=0;whiteSpace=wrap;html=1;fillColor=#fad7ac;strokeColor=#b46504;fontFamily=Comic Sans MS;" vertex="1" parent="zdI7ANHuM2Bu_Ind4vU9-1">
                    <mxGeometry x="42" y="641" width="90" height="50" as="geometry"/>
                </mxCell>
                <mxCell id="8z7F6mTt5Mdfna8yfUZV-98" value="3in2out" style="rounded=0;whiteSpace=wrap;html=1;fillColor=#fad7ac;strokeColor=#b46504;fontFamily=Comic Sans MS;" vertex="1" parent="zdI7ANHuM2Bu_Ind4vU9-1">
                    <mxGeometry x="42" y="751" width="90" height="50" as="geometry"/>
                </mxCell>
                <mxCell id="8z7F6mTt5Mdfna8yfUZV-99" style="edgeStyle=orthogonalEdgeStyle;rounded=0;sketch=0;jumpStyle=arc;orthogonalLoop=1;jettySize=auto;html=1;exitX=1;exitY=0.25;exitDx=0;exitDy=0;entryX=0;entryY=0.75;entryDx=0;entryDy=0;fontFamily=Comic Sans MS;" edge="1" parent="zdI7ANHuM2Bu_Ind4vU9-1" source="8z7F6mTt5Mdfna8yfUZV-100" target="8z7F6mTt5Mdfna8yfUZV-83">
                    <mxGeometry relative="1" as="geometry">
                        <mxPoint x="462" y="691" as="targetPoint"/>
                        <Array as="points">
                            <mxPoint x="442" y="474"/>
                            <mxPoint x="442" y="789"/>
                        </Array>
                    </mxGeometry>
                </mxCell>
                <mxCell id="8z7F6mTt5Mdfna8yfUZV-147" style="edgeStyle=orthogonalEdgeStyle;rounded=0;jumpStyle=arc;orthogonalLoop=1;jettySize=auto;html=1;exitX=1;exitY=0.25;exitDx=0;exitDy=0;entryX=0;entryY=0.5;entryDx=0;entryDy=0;startArrow=none;startFill=0;endArrow=classic;endFill=1;fontFamily=Comic Sans MS;" edge="1" parent="zdI7ANHuM2Bu_Ind4vU9-1" source="8z7F6mTt5Mdfna8yfUZV-100" target="8z7F6mTt5Mdfna8yfUZV-30">
                    <mxGeometry relative="1" as="geometry">
                        <Array as="points">
                            <mxPoint x="400" y="474"/>
                            <mxPoint x="400" y="306"/>
                        </Array>
                    </mxGeometry>
                </mxCell>
                <mxCell id="8z7F6mTt5Mdfna8yfUZV-148" style="edgeStyle=orthogonalEdgeStyle;rounded=0;jumpStyle=arc;orthogonalLoop=1;jettySize=auto;html=1;exitX=1;exitY=0.75;exitDx=0;exitDy=0;entryX=0;entryY=0.5;entryDx=0;entryDy=0;startArrow=none;startFill=0;endArrow=classic;endFill=1;fontFamily=Comic Sans MS;" edge="1" parent="zdI7ANHuM2Bu_Ind4vU9-1" source="8z7F6mTt5Mdfna8yfUZV-100" target="8z7F6mTt5Mdfna8yfUZV-26">
                    <mxGeometry relative="1" as="geometry">
                        <Array as="points">
                            <mxPoint x="420" y="499"/>
                            <mxPoint x="420" y="396"/>
                        </Array>
                    </mxGeometry>
                </mxCell>
                <mxCell id="X1xiSLFqcvYb4-pfKMKE-6" style="edgeStyle=orthogonalEdgeStyle;rounded=0;jumpStyle=arc;orthogonalLoop=1;jettySize=auto;html=1;exitX=1;exitY=0.25;exitDx=0;exitDy=0;entryX=0;entryY=0.25;entryDx=0;entryDy=0;startArrow=none;startFill=0;endArrow=classic;endFill=1;strokeWidth=1;fontFamily=Comic Sans MS;strokeColor=#FF0000;" edge="1" parent="zdI7ANHuM2Bu_Ind4vU9-1" source="8z7F6mTt5Mdfna8yfUZV-100" target="X1xiSLFqcvYb4-pfKMKE-5">
                    <mxGeometry relative="1" as="geometry"/>
                </mxCell>
                <mxCell id="8z7F6mTt5Mdfna8yfUZV-100" value="3in2out" style="rounded=0;whiteSpace=wrap;html=1;strokeColor=#36393d;fillColor=#ffcc99;fontFamily=Comic Sans MS;" vertex="1" parent="zdI7ANHuM2Bu_Ind4vU9-1">
                    <mxGeometry x="282" y="461" width="90" height="50" as="geometry"/>
                </mxCell>
                <mxCell id="8z7F6mTt5Mdfna8yfUZV-101" value="2in1out" style="rounded=0;whiteSpace=wrap;html=1;strokeColor=#56517E;fillColor=#d0cee2;fontFamily=Comic Sans MS;" vertex="1" parent="zdI7ANHuM2Bu_Ind4vU9-1">
                    <mxGeometry x="282" y="641" width="90" height="50" as="geometry"/>
                </mxCell>
                <mxCell id="8z7F6mTt5Mdfna8yfUZV-102" value="2in2out" style="rounded=0;whiteSpace=wrap;html=1;strokeColor=#10739e;fillColor=#b1ddf0;fontFamily=Comic Sans MS;" vertex="1" parent="zdI7ANHuM2Bu_Ind4vU9-1">
                    <mxGeometry x="282" y="751" width="90" height="50" as="geometry"/>
                </mxCell>
                <mxCell id="8z7F6mTt5Mdfna8yfUZV-103" value="2in1out" style="rounded=0;whiteSpace=wrap;html=1;strokeColor=#56517E;fillColor=#d0cee2;fontFamily=Comic Sans MS;" vertex="1" parent="zdI7ANHuM2Bu_Ind4vU9-1">
                    <mxGeometry x="282" y="841" width="90" height="50" as="geometry"/>
                </mxCell>
                <mxCell id="8z7F6mTt5Mdfna8yfUZV-104" style="edgeStyle=orthogonalEdgeStyle;rounded=0;sketch=0;jumpStyle=arc;orthogonalLoop=1;jettySize=auto;html=1;exitX=1;exitY=0.5;exitDx=0;exitDy=0;entryX=0;entryY=0.5;entryDx=0;entryDy=0;fontFamily=Comic Sans MS;" edge="1" parent="zdI7ANHuM2Bu_Ind4vU9-1" source="8z7F6mTt5Mdfna8yfUZV-105" target="8z7F6mTt5Mdfna8yfUZV-110">
                    <mxGeometry relative="1" as="geometry">
                        <mxPoint x="882" y="865.7241379310344" as="targetPoint"/>
                    </mxGeometry>
                </mxCell>
                <mxCell id="8z7F6mTt5Mdfna8yfUZV-105" value="3in1out" style="rounded=0;whiteSpace=wrap;html=1;strokeColor=#ae4132;fillColor=#fad9d5;fontFamily=Comic Sans MS;" vertex="1" parent="zdI7ANHuM2Bu_Ind4vU9-1">
                    <mxGeometry x="712" y="841" width="90" height="50" as="geometry"/>
                </mxCell>
                <mxCell id="8z7F6mTt5Mdfna8yfUZV-106" style="edgeStyle=orthogonalEdgeStyle;rounded=0;sketch=0;jumpStyle=arc;orthogonalLoop=1;jettySize=auto;html=1;exitX=1;exitY=0.25;exitDx=0;exitDy=0;fontFamily=Comic Sans MS;" edge="1" parent="zdI7ANHuM2Bu_Ind4vU9-1" source="8z7F6mTt5Mdfna8yfUZV-108">
                    <mxGeometry relative="1" as="geometry">
                        <mxPoint x="1122" y="764" as="targetPoint"/>
                    </mxGeometry>
                </mxCell>
                <mxCell id="8z7F6mTt5Mdfna8yfUZV-107" style="edgeStyle=orthogonalEdgeStyle;rounded=0;sketch=0;jumpStyle=arc;orthogonalLoop=1;jettySize=auto;html=1;exitX=1;exitY=0.75;exitDx=0;exitDy=0;entryX=0;entryY=0.75;entryDx=0;entryDy=0;fontFamily=Comic Sans MS;" edge="1" parent="zdI7ANHuM2Bu_Ind4vU9-1" source="8z7F6mTt5Mdfna8yfUZV-108" target="8z7F6mTt5Mdfna8yfUZV-110">
                    <mxGeometry relative="1" as="geometry">
                        <Array as="points">
                            <mxPoint x="852" y="788"/>
                            <mxPoint x="852" y="878"/>
                        </Array>
                    </mxGeometry>
                </mxCell>
                <mxCell id="8z7F6mTt5Mdfna8yfUZV-108" value="2in2out" style="rounded=0;whiteSpace=wrap;html=1;fillColor=#b1ddf0;strokeColor=#10739e;fontFamily=Comic Sans MS;" vertex="1" parent="zdI7ANHuM2Bu_Ind4vU9-1">
                    <mxGeometry x="712" y="751" width="90" height="50" as="geometry"/>
                </mxCell>
                <mxCell id="8z7F6mTt5Mdfna8yfUZV-109" style="edgeStyle=orthogonalEdgeStyle;rounded=0;sketch=0;jumpStyle=arc;orthogonalLoop=1;jettySize=auto;html=1;exitX=1;exitY=0.5;exitDx=0;exitDy=0;fontFamily=Comic Sans MS;" edge="1" parent="zdI7ANHuM2Bu_Ind4vU9-1" source="8z7F6mTt5Mdfna8yfUZV-110">
                    <mxGeometry relative="1" as="geometry">
                        <mxPoint x="1122" y="866" as="targetPoint"/>
                    </mxGeometry>
                </mxCell>
                <mxCell id="8z7F6mTt5Mdfna8yfUZV-110" value="3in1out" style="rounded=0;whiteSpace=wrap;html=1;strokeColor=#ae4132;fillColor=#fad9d5;fontFamily=Comic Sans MS;" vertex="1" parent="zdI7ANHuM2Bu_Ind4vU9-1">
                    <mxGeometry x="942" y="841" width="90" height="50" as="geometry"/>
                </mxCell>
                <mxCell id="8z7F6mTt5Mdfna8yfUZV-111" value="Submin" style="text;html=1;strokeColor=none;fillColor=none;align=center;verticalAlign=middle;whiteSpace=wrap;rounded=0;fontFamily=Comic Sans MS;" vertex="1" parent="zdI7ANHuM2Bu_Ind4vU9-1">
                    <mxGeometry x="1062" y="831" width="60" height="30" as="geometry"/>
                </mxCell>
                <mxCell id="8z7F6mTt5Mdfna8yfUZV-112" value="Submin" style="text;html=1;strokeColor=none;fillColor=none;align=center;verticalAlign=middle;whiteSpace=wrap;rounded=0;fontFamily=Comic Sans MS;" vertex="1" parent="zdI7ANHuM2Bu_Ind4vU9-1">
                    <mxGeometry x="812" y="361" width="60" height="30" as="geometry"/>
                </mxCell>
                <mxCell id="8z7F6mTt5Mdfna8yfUZV-113" value="Submin" style="text;html=1;strokeColor=none;fillColor=none;align=center;verticalAlign=middle;whiteSpace=wrap;rounded=0;fontFamily=Comic Sans MS;" vertex="1" parent="zdI7ANHuM2Bu_Ind4vU9-1">
                    <mxGeometry x="802" y="881" width="60" height="30" as="geometry"/>
                </mxCell>
                <mxCell id="8z7F6mTt5Mdfna8yfUZV-114" value="Min" style="text;html=1;strokeColor=none;fillColor=none;align=center;verticalAlign=middle;whiteSpace=wrap;rounded=0;fontFamily=Comic Sans MS;" vertex="1" parent="zdI7ANHuM2Bu_Ind4vU9-1">
                    <mxGeometry x="572" y="731" width="60" height="30" as="geometry"/>
                </mxCell>
                <mxCell id="8z7F6mTt5Mdfna8yfUZV-115" value="Min" style="text;html=1;strokeColor=none;fillColor=none;align=center;verticalAlign=middle;whiteSpace=wrap;rounded=0;fontFamily=Comic Sans MS;" vertex="1" parent="zdI7ANHuM2Bu_Ind4vU9-1">
                    <mxGeometry x="590" y="265" width="60" height="30" as="geometry"/>
                </mxCell>
                <mxCell id="8z7F6mTt5Mdfna8yfUZV-117" value="Min" style="text;html=1;strokeColor=none;fillColor=none;align=center;verticalAlign=middle;whiteSpace=wrap;rounded=0;fontFamily=Comic Sans MS;" vertex="1" parent="zdI7ANHuM2Bu_Ind4vU9-1">
                    <mxGeometry x="372" y="261" width="60" height="30" as="geometry"/>
                </mxCell>
                <mxCell id="8z7F6mTt5Mdfna8yfUZV-118" value="Min" style="text;html=1;strokeColor=none;fillColor=none;align=center;verticalAlign=middle;whiteSpace=wrap;rounded=0;fontFamily=Comic Sans MS;" vertex="1" parent="zdI7ANHuM2Bu_Ind4vU9-1">
                    <mxGeometry x="432" y="441" width="60" height="30" as="geometry"/>
                </mxCell>
                <mxCell id="8z7F6mTt5Mdfna8yfUZV-119" value="Min" style="text;html=1;strokeColor=none;fillColor=none;align=center;verticalAlign=middle;whiteSpace=wrap;rounded=0;fontFamily=Comic Sans MS;" vertex="1" parent="zdI7ANHuM2Bu_Ind4vU9-1">
                    <mxGeometry x="372" y="721" width="60" height="30" as="geometry"/>
                </mxCell>
                <mxCell id="8z7F6mTt5Mdfna8yfUZV-124" style="edgeStyle=orthogonalEdgeStyle;rounded=0;jumpStyle=arc;orthogonalLoop=1;jettySize=auto;html=1;exitX=0;exitY=0.5;exitDx=0;exitDy=0;startArrow=classic;startFill=1;endArrow=none;endFill=0;fontFamily=Comic Sans MS;" edge="1" parent="zdI7ANHuM2Bu_Ind4vU9-1" source="8z7F6mTt5Mdfna8yfUZV-123">
                    <mxGeometry relative="1" as="geometry">
                        <mxPoint x="-90" y="239.83333333333337" as="targetPoint"/>
                    </mxGeometry>
                </mxCell>
                <mxCell id="8z7F6mTt5Mdfna8yfUZV-132" style="edgeStyle=elbowEdgeStyle;rounded=0;jumpStyle=arc;orthogonalLoop=1;jettySize=auto;html=1;exitX=1;exitY=0.5;exitDx=0;exitDy=0;startArrow=none;startFill=0;endArrow=classic;endFill=1;fontFamily=Comic Sans MS;" edge="1" parent="zdI7ANHuM2Bu_Ind4vU9-1" source="8z7F6mTt5Mdfna8yfUZV-123" target="8z7F6mTt5Mdfna8yfUZV-47">
                    <mxGeometry relative="1" as="geometry">
                        <Array as="points">
                            <mxPoint x="240" y="180"/>
                        </Array>
                    </mxGeometry>
                </mxCell>
                <mxCell id="8z7F6mTt5Mdfna8yfUZV-123" value="DFF" style="rounded=0;whiteSpace=wrap;html=1;strokeColor=#b46504;fontFamily=Comic Sans MS;fillColor=#00FF00;" vertex="1" parent="zdI7ANHuM2Bu_Ind4vU9-1">
                    <mxGeometry x="42" y="215" width="90" height="50" as="geometry"/>
                </mxCell>
                <mxCell id="8z7F6mTt5Mdfna8yfUZV-137" value="4x12" style="text;html=1;strokeColor=none;fillColor=none;align=center;verticalAlign=middle;whiteSpace=wrap;rounded=0;dashed=1;fontFamily=Comic Sans MS;" vertex="1" parent="zdI7ANHuM2Bu_Ind4vU9-1">
                    <mxGeometry x="900.0045454545455" y="10" width="39.54545454545455" height="20" as="geometry"/>
                </mxCell>
                <mxCell id="8z7F6mTt5Mdfna8yfUZV-146" style="edgeStyle=orthogonalEdgeStyle;rounded=0;jumpStyle=arc;orthogonalLoop=1;jettySize=auto;html=1;exitX=1;exitY=0.5;exitDx=0;exitDy=0;entryX=0;entryY=0.5;entryDx=0;entryDy=0;startArrow=none;startFill=0;endArrow=classic;endFill=1;fontFamily=Comic Sans MS;" edge="1" parent="zdI7ANHuM2Bu_Ind4vU9-1" source="8z7F6mTt5Mdfna8yfUZV-141" target="8z7F6mTt5Mdfna8yfUZV-100">
                    <mxGeometry relative="1" as="geometry">
                        <Array as="points">
                            <mxPoint x="160" y="565"/>
                            <mxPoint x="160" y="486"/>
                        </Array>
                    </mxGeometry>
                </mxCell>
                <mxCell id="8z7F6mTt5Mdfna8yfUZV-141" value="DFF" style="rounded=0;whiteSpace=wrap;html=1;strokeColor=#b46504;fontFamily=Comic Sans MS;fillColor=#00FF00;" vertex="1" parent="zdI7ANHuM2Bu_Ind4vU9-1">
                    <mxGeometry x="42" y="540" width="90" height="50" as="geometry"/>
                </mxCell>
                <mxCell id="8z7F6mTt5Mdfna8yfUZV-144" style="edgeStyle=orthogonalEdgeStyle;rounded=0;jumpStyle=arc;orthogonalLoop=1;jettySize=auto;html=1;exitX=0;exitY=0.25;exitDx=0;exitDy=0;fontFamily=Comic Sans MS;startArrow=classic;startFill=1;endArrow=none;endFill=0;" edge="1" parent="zdI7ANHuM2Bu_Ind4vU9-1">
                    <mxGeometry relative="1" as="geometry">
                        <mxPoint x="-20" y="570" as="targetPoint"/>
                        <mxPoint x="42" y="653.5000000000001" as="sourcePoint"/>
                    </mxGeometry>
                </mxCell>
                <mxCell id="8z7F6mTt5Mdfna8yfUZV-145" style="edgeStyle=orthogonalEdgeStyle;rounded=0;jumpStyle=arc;orthogonalLoop=1;jettySize=auto;html=1;exitX=0;exitY=0.5;exitDx=0;exitDy=0;startArrow=classic;startFill=1;endArrow=none;endFill=0;fontFamily=Comic Sans MS;" edge="1" parent="zdI7ANHuM2Bu_Ind4vU9-1">
                    <mxGeometry relative="1" as="geometry">
                        <mxPoint x="-90" y="570.0033333333333" as="targetPoint"/>
                        <mxPoint x="42" y="570.1700000000001" as="sourcePoint"/>
                        <Array as="points">
                            <mxPoint x="-60" y="570"/>
                            <mxPoint x="-60" y="570"/>
                        </Array>
                    </mxGeometry>
                </mxCell>
                <mxCell id="X1xiSLFqcvYb4-pfKMKE-1" value="4x16" style="text;html=1;strokeColor=none;fillColor=none;align=center;verticalAlign=middle;whiteSpace=wrap;rounded=0;dashed=1;fontFamily=Comic Sans MS;" vertex="1" parent="zdI7ANHuM2Bu_Ind4vU9-1">
                    <mxGeometry x="1010.4545454545455" y="-30" width="39.54545454545455" height="20" as="geometry"/>
                </mxCell>
                <mxCell id="X1xiSLFqcvYb4-pfKMKE-4" value="2in2out" style="rounded=0;whiteSpace=wrap;html=1;fillColor=#b1ddf0;strokeColor=#10739e;fontFamily=Comic Sans MS;dashed=1;" vertex="1" parent="zdI7ANHuM2Bu_Ind4vU9-1">
                    <mxGeometry x="712" y="461" width="90" height="50" as="geometry"/>
                </mxCell>
                <mxCell id="X1xiSLFqcvYb4-pfKMKE-7" style="edgeStyle=orthogonalEdgeStyle;rounded=0;jumpStyle=arc;orthogonalLoop=1;jettySize=auto;html=1;exitX=1;exitY=0.75;exitDx=0;exitDy=0;entryX=0;entryY=0.75;entryDx=0;entryDy=0;startArrow=none;startFill=0;endArrow=classic;endFill=1;strokeWidth=1;fontFamily=Comic Sans MS;dashed=1;" edge="1" parent="zdI7ANHuM2Bu_Ind4vU9-1" source="X1xiSLFqcvYb4-pfKMKE-5" target="X1xiSLFqcvYb4-pfKMKE-4">
                    <mxGeometry relative="1" as="geometry"/>
                </mxCell>
                <mxCell id="X1xiSLFqcvYb4-pfKMKE-5" value="DFF" style="rounded=0;whiteSpace=wrap;html=1;strokeColor=#b46504;fontFamily=Comic Sans MS;fillColor=#00FF00;dashed=1;" vertex="1" parent="zdI7ANHuM2Bu_Ind4vU9-1">
                    <mxGeometry x="482" y="461" width="90" height="50" as="geometry"/>
                </mxCell>
            </root>
        </mxGraphModel>
    </diagram>
</mxfile>